<?xml version="1.0" encoding="UTF-8"?><svg xmlns="http://www.w3.org/2000/svg" viewBox="0 0 304.21 211.64"><defs><style>.d{fill:#f3eee6;}</style></defs><g id="a"/><g id="b"><g id="c"><g><path class="d" d="M188.94,0c1.12,4.74,2.15,9.47,3.22,14.18,1.07,4.71,2.18,9.4,3.34,14.07,1.17,4.67,2.34,9.33,3.61,13.96l3.87,13.88c2.59,9.25,4.95,18.63,8.29,27.7,1.73,4.5,3.44,9.03,5.61,13.35,1.05,2.18,2.05,4.37,3.19,6.5,1.14,2.13,2.32,4.24,3.51,6.34,1.14,2.12,2.46,4.15,3.73,6.21,1.29,2.04,2.52,4.11,3.86,6.12,1.35,2,2.69,4,3.99,6.02,.64,1.01,1.33,2,2.02,2.99l2.03,2.98c2.66,4,5.51,7.87,8.31,11.77l4.34,5.74c1.41,1.94,2.99,3.76,4.45,5.66,5.95,7.52,12.04,14.94,18.33,22.21,6.34,7.22,12.86,14.31,19.57,21.27l-1.99,2.19c-7.62-6.08-14.88-12.64-21.72-19.62-6.86-6.96-13.3-14.35-19.23-22.13-2.99-3.87-5.76-7.91-8.56-11.91l-4.01-6.14c-1.36-2.03-2.62-4.12-3.87-6.22-2.59-4.14-4.87-8.47-7.14-12.79-1.14-2.16-2.16-4.38-3.24-6.56-1.08-2.19-2.14-4.37-3.14-6.6-1.01-2.21-2.03-4.42-3.09-6.61l-3-6.64c-2.07-4.4-3.94-8.88-6.03-13.27-4.07-8.83-8.12-17.76-11.2-27.04-3.07-9.28-5.24-18.84-6.93-28.45-1.59-9.63-2.66-19.35-2.7-29.11l.6-.07Z"/><polygon class="d" points="260.08 192.81 262.11 188.06 293.2 201.33 277.91 171.18 282.51 168.85 304.21 211.64 260.08 192.81"/></g><g><path class="d" d="M139.24,67.13c3.67,2.14,7.09,4.78,10.01,8.07,2.9,3.26,5.31,7.36,5.96,12.1,.13,1.18,.24,2.36,.15,3.59-.08,1.21-.3,2.4-.59,3.55-.6,2.29-1.57,4.43-2.73,6.4-1.18,1.97-2.55,3.77-4.04,5.43-.74,.84-1.53,1.62-2.33,2.39-.82,.73-1.65,1.42-2.49,2.11-.84,.68-1.67,1.4-2.54,2.03-.87,.62-1.75,1.23-2.63,1.83l-2.64,1.81c-.89,.58-1.8,1.12-2.7,1.68-3.59,2.24-7.25,4.35-10.86,6.51-3.6,2.18-7.2,4.35-10.7,6.67-3.55,2.24-7.03,4.59-10.51,6.95-6.95,4.73-13.79,9.65-20.89,14.14-7.09,4.51-14.27,8.88-21.47,13.2-7.23,4.28-14.6,8.31-22.05,12.18-7.44,3.89-14.99,7.59-22.62,11.13l-1.56-2.83c7.06-4.55,14.17-9.02,21.36-13.33,7.16-4.36,14.39-8.59,21.7-12.67l22.02-12.12c7.35-4.03,14.87-7.77,22.21-11.82,7.33-4.07,14.48-8.46,21.22-13.43l4.99-3.81c1.64-1.3,3.23-2.65,4.85-3.97,1.63-1.31,3.19-2.67,4.75-4.02,.78-.68,1.56-1.35,2.36-2.01,.77-.68,1.49-1.38,2.24-2.06l2.24-2.04c.68-.71,1.41-1.39,2.04-2.13,1.32-1.45,2.54-2.96,3.56-4.57,1.04-1.6,1.85-3.29,2.44-5.03,.57-1.75,.8-3.47,.71-5.31-.12-3.67-1.72-7.33-3.89-10.69-2.19-3.37-5-6.46-7.95-9.45l.37-.47Z"/><polygon class="d" points="31.46 158.24 35.36 161.63 13.19 187.14 46.57 181.84 47.38 186.94 0 194.46 31.46 158.24"/></g></g></g></svg>