<?xml version="1.0" encoding="UTF-8"?><svg xmlns="http://www.w3.org/2000/svg" viewBox="0 0 355 173.36"><defs><style>.d{fill:#fff7eb;}.e{fill:none;stroke:#fff7eb;stroke-miterlimit:10;stroke-width:10px;}</style></defs><g id="a"/><g id="b"><g id="c"><g><ellipse class="e" cx="177.5" cy="81.22" rx="172.5" ry="74"/><path class="d" d="M339.6,127.07c-9.71,37.97-77.72,46.64-110.79,46.28-33.98-.18-67.76-6.55-99.94-17.31C87.88,141.87,24.73,112.92,4.55,72.87c-6.07-12.26-6.4-26.9,1.48-38.53C18.18,16.19,42.2,8.17,62.64,4.07,104.69-3.65,148.15,.32,189.53,10.01c50.53,12.64,103.41,34.76,137.27,75.81,9.02,11.49,16.27,26.34,12.8,41.25h0Zm-.97-.23c6.58-32.56-33.42-59.57-58.36-72.67C236.13,31.36,187.42,17.78,138.16,11.94,101.35,8.15,50.32,7.44,19.31,29.58,5.68,39.56,1.41,55.6,8.42,71.13c2.68,6.53,6.96,12.6,11.5,18.01,48.14,55.46,162.88,77.65,233.96,76.63,28.24-.61,76.06-6.79,84.74-38.93h0Z"/></g></g></g></svg>