<?xml version="1.0" encoding="UTF-8"?><svg xmlns="http://www.w3.org/2000/svg" viewBox="0 0 355.41 175.11"><defs><style>.d,.e{fill:#fff7eb;}.e{stroke:#fff7eb;stroke-miterlimit:10;stroke-width:10px;}</style></defs><g id="a"/><g id="b"><g id="c"><g><ellipse class="e" cx="177.91" cy="82.23" rx="172.5" ry="74"/><path class="d" d="M340.11,128.11c-3.64,14.91-16.76,24.92-29.97,31.23-33,15.19-70.66,17.64-106.46,14.65-25.4-2.36-50.47-8-74.59-16.25C88.69,143.98-8.59,99.79,.61,47.74,4.27,30.58,19.58,19.24,34.83,12.67,80.36-6.25,143.02-1.26,190.19,9.99c50.14,12.49,100.89,34.31,135.25,74.18,9.85,12.16,18.42,27.84,14.67,43.95h0Zm-1.17-.28c3.69-16.72-6.47-32.61-17.97-43.88-17.77-17.45-40.42-28.92-63.08-38.69-38.07-15.98-78.42-26.49-119.43-31.27-36.63-3.84-87.34-4.66-118.31,17.13C6.65,40.9,2.38,56.6,9.22,71.97c2.63,6.5,6.87,12.56,11.38,17.95,45.2,51.98,142.5,71.07,208.87,75.66,24.66,1.27,50.05,1.16,73.77-6.49,15.34-4.92,31.57-14.62,35.7-31.25h0Z"/></g></g></g></svg>