<svg id="Layer_1" data-name="Layer 1" xmlns="http://www.w3.org/2000/svg" width="430.29" height="103.99" viewBox="0 0 430.29 103.99"><defs><style>.cls-1{fill:#ff8000;}</style></defs><path class="cls-1" d="M48.3,1a6,6,0,0,1,6.63,0A144.9,144.9,0,0,1,69.59,11.57s1.27.88,1.3-.61a23.68,23.68,0,0,1,.34-5.76,2.64,2.64,0,0,1,2.44-1.69s5.76.29,9.42.78a3.59,3.59,0,0,1,3.08,3.17s2.35,15.68,2.88,21.33c0,0,.45,2.88,4.62,7.76,0,0,8.47,11.85,9.45,14.12,0,0,2,4.1-2.27,4.66,0,0-7.72.78-8.47,1a1.92,1.92,0,0,0-1.69,2.09s-.41,27.29-2.4,40.39c0,0-.53,5.2-3.39,5.08,0,0-7.94-.25-9.79-.2,0,0-.79,0-.68-1.07,0,0,4-42.54,1.31-64,0,0-.12-2.78-2.24-3.39,0,0-1.93-.78-3.77,1.7A67.47,67.47,0,0,0,57.16,75.23S56.94,82,58,83.69c0,0,.64,1.19,3.92,1.46l4.17.56s.76,0,.69,1c0,0-1,12.48-1.22,14.7a4.33,4.33,0,0,1-.3,1.47s-.15.43-1.46.38c0,0-18.35-.14-20.42,0,0,0-.86,0-1-.46S41,86.7,41.07,84.49a1.12,1.12,0,0,1,.65-1.09,11.07,11.07,0,0,0,5.08-8.11,45.86,45.86,0,0,0,.1-7.13s.68-23.92.85-27.77c0,0,.13-1.3-1.56-1.54A1.58,1.58,0,0,0,44.29,40v.13c0,.14-1.18,15.79-1,22,0,0,.4,4.08-2.42,4.16,0,0-2.75.41-2.88-3,0,0,.2-15.35.88-22.93a1.72,1.72,0,0,0-3.4-.32.15.15,0,0,0,0,.13s-1.19,14.69-1,22.44c0,0,.34,3.76-2.66,3.62,0,0-2.51.29-2.64-3.05,0,0,.68-21,.86-22.63A1.69,1.69,0,0,0,28.59,39h-.17a1.7,1.7,0,0,0-1.81,1.41v.15s-1.11,25.13-1,32.51c0,0-.1,7.59,5.5,10.67,0,0,.83.48.85,1.2,0,0,.62,13.33,1.2,17.63,0,0,.2,1-.71,1L18.38,104a2.9,2.9,0,0,1-2.88-2.74,314.21,314.21,0,0,1-2.6-42.59,2.18,2.18,0,0,0-1.7-2.32s-7.21-.66-9-1.1A3,3,0,0,1,.1,51.59a3,3,0,0,1,.31-.77A145.29,145.29,0,0,1,48.31,1Zm100,39H133.71c-4.62,0-4.62,0-5.59,5.41s-1,5.59,3.28,5.59h8.5l-4.83,27.62c-1.17,6.17-3.86,10.43-12.17,12.93-2.11.57-2.69,1.34-2.69,2.31a11.54,11.54,0,0,0,1.36,4.43c1.34,3.29,2.12,3.87,3.26,3.87a21.67,21.67,0,0,0,4.07-.78c11.76-3.86,16.59-12.93,18.52-23.74l5.41-31.07c1-6.57,1-6.57-4.83-6.57m46.84,0c-5.63,0-5.63,0-6.39,4.7L184.39,69.1c-1.13,7.14-3,11.27-10,11.27s-9.2-4.13-8.06-10.52l3.94-23.28c1.13-6.58.93-6.58-4.89-6.58s-5.82,0-6.58,4.51l-4.12,24.42c-2.44,13.9,6.2,22.52,18.41,22.52,13.7,0,20.64-6.19,22.89-20.83l4.14-24.23c.94-6.39.56-6.39-5.25-6.39m25.64,40c4.52-.18,6.95-2.25,6.95-4.31,0-2.64-3.19-3.57-7.5-4.89-8.46-2.63-16.15-5.62-16.15-14.64,0-10.7,8.83-16.53,19.9-16.53a132,132,0,0,1,13.34.57c3,.38,3.76,1.31,2.81,6s-2.07,5.08-4.69,4.89c-3.19-.19-7.33-.57-12.2-.57-5.63,0-7.33,2.08-7.33,4,0,2.44,2.25,3.76,7.51,5.26,9.76,2.81,16.15,6.77,16.15,15.22,0,10-7.32,15.77-19.16,16.14a93.81,93.81,0,0,1-16.91-.93c-3.76-.57-4-.57-3-6,.93-4.87.93-5.26,4.5-4.87a101.29,101.29,0,0,0,15.77.74m61.75-40H250c-4.12,0-4.12,0-5,5s-.68,5,2.93,5h10.41l-5.83,34.58c-1.12,6.55-.93,6.55,4.88,6.55,5.45,0,5.63,0,6.4-4.68l6-35.45h10c4.5,0,4.5,0,5.45-5.44s.93-5.46-3.2-5.46M337.89,51c4.55,0,4.55,0,5.51-5.51s.94-5.51-3.23-5.51h-22.7c-8.1,0-7.9,0-9.22,8.1l-5.82,34.06C300.91,91,301.1,91,309.2,91h22.08c4.83,0,4.62,0,5.59-5.4s1-5.6-3.28-5.6H314.42L316,70h16c4.19,0,4.19,0,4.91-4.91S337.63,60,332,60H317.84l1.47-9Zm24,18,7.32-16.14c.57-1.32.57-1.32,1.5-1.32s.95,0,1.14,1.5l2.25,16Zm20.37-22.85c-1.12-6.39-1.12-6.39-10.15-6.39-8.45,0-8.26,0-10.88,5.26l-19,39.63c-2.82,5.63-2.25,6.19,4.68,6.19,5.46,0,5.46,0,7.71-5.07l3-6.77h18.42l.93,6.77c.76,5.07.94,5.07,6.39,5.07,6.2,0,6.76-.37,5.63-6.58l-6.75-38.1Zm44-6.15H394.56c-4.14,0-4.14,0-5,5s-.69,5,2.92,5h10.41l-5.82,34.58c-1.13,6.55-.95,6.55,4.89,6.55,5.44,0,5.63,0,6.37-4.68l6-35.45h9.94c4.51,0,4.51,0,5.45-5.44s1.13-5.46-3-5.46"/></svg>