<?xml version="1.0" encoding="UTF-8"?><svg id="Layer_1" xmlns="http://www.w3.org/2000/svg" width="134.3086" height="134.3311" viewBox="0 0 134.3086 134.3311"><defs><style>.cls-1{fill:#623412;}</style></defs><path class="cls-1" d="M57.93,35.0997h-.9222c-.1544,0-.2795-.1252-.2794-.2796l.0004-.5103c.0001-.1544-.125-.2796-.2794-.2796h-.0418c-.1543,0-.2794-.1251-.2794-.2794h0c0-.1698-.1502-.3003-.3184-.2767l-2.6174,.3687c-.8665,.122-1.7496-.0222-2.5323-.4135h0v-.8412h0c.7827-.3913,1.6658-.5355,2.5323-.4135l2.6174,.3687c.1681,.0237,.3184-.1069,.3184-.2767h0c0-.1543,.1251-.2794,.2794-.2794h.0419c.1544,0,.2795-.1252,.2794-.2796l-.0004-.457c-.0001-.1538,.124-.2787,.2778-.2796l.9246-.0053h20.3016c.1544,0,.2795,.1252,.2794,.2796l-.0004,.5103c-.0001,.1544,.125,.2796,.2794,.2796h.0418c.1543,0,.2794,.1251,.2794,.2794h0c0,.1698,.1502,.3003,.3184,.2767l2.6174-.3687c.8665-.122,1.7496,.0222,2.5323,.4135h0v.8412h0c-.7827,.3913-1.6658,.5355-2.5323,.4135l-2.6174-.3687c-.1681-.0237-.3184,.1069-.3184,.2767h0c0,.1543-.1251,.2794-.2794,.2794h-.0419c-.1544,0-.2795,.1252-.2794,.2796l.0004,.457c.0001,.1538-.124,.2787-.2778,.2796l-.9246,.0053h-19.3794Z"/><g><g><path class="cls-1" d="M34.1523,62.4111v-11.2002h9.3921v2.6084h-6.3521v5.9839h6.5918v2.6079h-9.6318Zm1.6001-4.4482v-2.4639h7.1519v2.4639h-7.1519Z"/><path class="cls-1" d="M47.8638,62.4111v-11.2002h2.9277l6.688,7.4561-.5596-.1597c-.0645-.4268-.1123-.8135-.144-1.1602-.0322-.3467-.0615-.6743-.0884-.9839-.0264-.3096-.0479-.6079-.064-.896-.0156-.2881-.0239-.5864-.0239-.896v-3.3604h3.0562v11.2002h-2.96l-7.104-8,1.0078,.272c.0425,.2773,.0825,.5337,.1201,.7681,.0371,.2349,.0664,.4722,.0879,.7119,.0215,.2402,.0425,.499,.064,.7759,.0215,.2778,.0347,.5923,.04,.9443s.0083,.752,.0083,1.1997v3.3281h-3.0562Z"/><path class="cls-1" d="M67.2397,62.4111v-8.4639h-4.0322v-2.7363h11.3281v2.7363h-4.1279v8.4639h-3.168Z"/><path class="cls-1" d="M78.0879,62.4111v-11.2002h5.8877c.8965,0,1.6621,.1499,2.2969,.4482,.6338,.2988,1.1221,.7173,1.4639,1.2559,.3408,.5391,.5117,1.1763,.5117,1.9121,0,.7466-.1816,1.4082-.5439,1.9839-.3633,.5762-.8584,1.0269-1.4883,1.3521-.6289,.3257-1.3438,.4883-2.1436,.4883h-3.0078v3.7598h-2.9766Zm2.9766-6.0322h2.6074c.2773,0,.5225-.0557,.7363-.168,.2129-.1118,.3838-.2661,.5117-.4639,.1279-.1973,.1924-.4346,.1924-.7119,0-.2881-.0674-.5254-.2002-.7119-.1338-.1865-.3145-.3281-.5439-.4243-.2295-.0957-.4932-.1436-.792-.1436h-2.5117v2.6235Zm4.1592,6.0322l-3.3916-5.0562,3.2803-.3999,3.7119,5.4561h-3.6006Z"/><path class="cls-1" d="M92.5996,62.4111v-11.2002h9.3926v2.6084h-6.3525v5.9839h6.5918v2.6079h-9.6318Zm1.6006-4.4482v-2.4639h7.1514v2.4639h-7.1514Z"/><path class="cls-1" d="M34.1523,81.6113v-11.2002h2.7681l4.6558,6.4644-2.0479-.0161,4.6719-6.4482h2.7358v11.2002h-3.0557v-3.0879c0-.9175,.021-1.7627,.064-2.5361,.0425-.7734,.1279-1.5547,.2559-2.3438l.3203,.9917-3.4722,4.48h-1.0562l-3.4561-4.5278,.3521-.9438c.1279,.7676,.2134,1.5356,.2559,2.3037s.0645,1.627,.0645,2.5762v3.0879h-3.0562Z"/><path class="cls-1" d="M49.832,81.6113l5.0879-11.2002h2.7041l5.0718,11.2002h-3.1836l-2.5923-5.7441c-.1172-.2559-.2212-.4985-.312-.728-.0908-.229-.1733-.4502-.248-.6641-.0747-.2129-.1465-.4292-.2158-.6479-.0693-.2183-.1362-.4453-.2002-.6797l.5923-.0161c-.0747,.2559-.144,.4937-.208,.7119-.064,.2188-.1387,.4351-.2241,.6479-.0854,.2134-.1758,.4321-.272,.6562-.0962,.2236-.1978,.4639-.3042,.7197l-2.5757,5.7441h-3.1201Zm2.4321-1.7598l.96-2.2402h6.064l.624,2.2402h-7.6479Z"/><path class="cls-1" d="M70.1997,81.7715c-.8853,0-1.6909-.0854-2.416-.2563-.7256-.1704-1.3706-.4053-1.936-.7036-.5654-.2988-1.0718-.6401-1.52-1.0244l1.5361-2.3198c.7783,.6401,1.5571,1.0801,2.3359,1.3198,.7783,.2402,1.5039,.3604,2.1758,.3604,.2666,0,.5308-.0239,.792-.0723,.2617-.0479,.4829-.1304,.6641-.248,.1816-.1172,.272-.2876,.272-.5117,0-.1494-.0479-.2744-.1436-.376-.0962-.1016-.2271-.1865-.3921-.2563-.1655-.0688-.3574-.1279-.5762-.1758s-.4614-.0903-.728-.1279c-.2666-.0371-.5493-.0723-.8481-.104-.7036-.0962-1.3335-.2402-1.8877-.4321-.5547-.1919-1.0239-.4321-1.4082-.7197-.3838-.2881-.6748-.6265-.8721-1.0161-.1973-.3892-.2959-.8403-.2959-1.3521,0-.5654,.1333-1.0747,.3999-1.5278,.2666-.4536,.6401-.8374,1.1201-1.1523,.48-.3145,1.0322-.5518,1.6562-.7119s1.2822-.2397,1.9756-.2397c.8213,0,1.5361,.0718,2.144,.2158,.6084,.144,1.1362,.3413,1.584,.5918,.4482,.251,.8267,.5308,1.1362,.8403l-1.6001,2c-.2881-.2134-.6157-.3945-.9839-.5439s-.7495-.2642-1.144-.3442c-.395-.0801-.7734-.1201-1.1362-.1201-.3735,0-.6958,.0269-.9678,.0801-.272,.0537-.4907,.1362-.6562,.248-.165,.1118-.2476,.2642-.2476,.4561,0,.1709,.0825,.312,.2476,.4238,.1655,.1123,.3735,.2031,.624,.272,.2505,.0698,.5122,.123,.7842,.1602,.272,.0376,.52,.0718,.7441,.104,.6182,.0747,1.2129,.1816,1.7837,.3198,.5708,.1392,1.0776,.3335,1.52,.584,.4429,.251,.7896,.584,1.04,1s.376,.9497,.376,1.6001c0,.8003-.2266,1.48-.6797,2.04-.4536,.5601-1.0698,.9868-1.8481,1.2803-.7788,.293-1.6533,.4399-2.624,.4399Z"/><path class="cls-1" d="M77.3682,81.6113l5.0879-11.2002h2.7041l5.0723,11.2002h-3.1836l-2.5928-5.7441c-.1172-.2559-.2207-.4985-.3115-.728-.0908-.229-.1738-.4502-.248-.6641-.0752-.2129-.1465-.4292-.2158-.6479-.0693-.2183-.1367-.4453-.2002-.6797l.5918-.0161c-.0742,.2559-.1436,.4937-.208,.7119-.0635,.2188-.1387,.4351-.2236,.6479-.0859,.2134-.1758,.4321-.2725,.6562-.0957,.2236-.1973,.4639-.3037,.7197l-2.5762,5.7441h-3.1201Zm2.4326-1.7598l.96-2.2402h6.0635l.624,2.2402h-7.6475Z"/><path class="cls-1" d="M97.7363,81.7715c-.8857,0-1.6914-.0854-2.416-.2563-.7256-.1704-1.3711-.4053-1.9365-.7036-.5654-.2988-1.0713-.6401-1.5195-1.0244l1.5361-2.3198c.7783,.6401,1.5566,1.0801,2.3359,1.3198,.7783,.2402,1.5039,.3604,2.1758,.3604,.2666,0,.5303-.0239,.792-.0723,.2617-.0479,.4824-.1304,.6641-.248,.1816-.1172,.2715-.2876,.2715-.5117,0-.1494-.0479-.2744-.1436-.376s-.2266-.1865-.3916-.2563c-.166-.0688-.3574-.1279-.5762-.1758s-.4619-.0903-.7285-.1279c-.2666-.0371-.5488-.0723-.8477-.104-.7041-.0962-1.334-.2402-1.8877-.4321-.5547-.1919-1.0244-.4321-1.4082-.7197-.3838-.2881-.6748-.6265-.8721-1.0161-.1973-.3892-.2959-.8403-.2959-1.3521,0-.5654,.1328-1.0747,.3994-1.5278,.2666-.4536,.6406-.8374,1.1201-1.1523,.4805-.3145,1.0322-.5518,1.6562-.7119s1.2822-.2397,1.9756-.2397c.8213,0,1.5361,.0718,2.1445,.2158s1.1357,.3413,1.584,.5918c.4482,.251,.8262,.5308,1.1357,.8403l-1.5996,2c-.2881-.2134-.6162-.3945-.9844-.5439s-.749-.2642-1.1436-.3442c-.3955-.0801-.7734-.1201-1.1367-.1201-.373,0-.6953,.0269-.9678,.0801-.2715,.0537-.4902,.1362-.6562,.248-.165,.1118-.2471,.2642-.2471,.4561,0,.1709,.082,.312,.2471,.4238,.166,.1123,.374,.2031,.624,.272,.251,.0698,.5127,.123,.7842,.1602,.2725,.0376,.5205,.0718,.7441,.104,.6182,.0747,1.2129,.1816,1.7842,.3198,.5703,.1392,1.0771,.3335,1.5195,.584,.4434,.251,.79,.584,1.04,1,.251,.416,.376,.9497,.376,1.6001,0,.8003-.2266,1.48-.6797,2.04s-1.0693,.9868-1.8477,1.2803c-.7793,.293-1.6533,.4399-2.624,.4399Z"/></g><g><path class="cls-1" d="M26.1167,26.3066l-5.1279-5.7441,.6401-.5718,5.1279,5.7441-.6401,.5718Zm-1.9517-2.814l-.5488-.6313,4.4316-3.9556,.5566,.6235-4.4395,3.9634Zm6.4321-1.186l-5.1279-5.7441,.6401-.5713,5.1279,5.7441-.6401,.5713Z"/><path class="cls-1" d="M34.5918,19.2324l-.9741-8.3555,.8921-.5234,6.8086,4.9331-.8159,.4785-4.7466-3.439c-.1587-.1108-.3047-.2188-.438-.3232-.1338-.1045-.2617-.2036-.3848-.2974-.123-.0933-.2461-.1914-.3696-.293-.1235-.1021-.2534-.2104-.3892-.3267l.2085-.1226c.0371,.208,.0693,.3936,.0967,.5557,.0269,.1626,.0518,.3203,.0732,.4736,.022,.1528,.0439,.3101,.0664,.4712,.022,.1611,.0469,.3447,.0737,.5498l.6675,5.7681-.7686,.4507Zm.1831-2.4922l-.1387-.8877,3.6626-2.1484,.6318,.5986-4.1558,2.4375Z"/><path class="cls-1" d="M45.106,13.5781l-2.4707-7.293,.7915-.2681,7.7656,4.4419-.041,.2227c-.0747-.1294-.1597-.3174-.2549-.564s-.1997-.5205-.3135-.8228c-.1143-.3022-.2271-.6064-.3384-.9131-.1118-.3066-.2129-.5938-.3037-.8613-.0903-.2671-.1641-.4844-.2207-.6514l-.9072-2.6772,.813-.2754,2.4707,7.293-.8228,.2788-7.6743-4.3452-.0117-.2397c.0728,.1689,.1538,.3623,.2427,.5796,.0894,.2178,.1812,.4478,.2749,.6909,.0942,.2432,.187,.4785,.2803,.7065,.0923,.228,.1738,.4404,.2446,.6367,.0708,.1973,.126,.3545,.166,.4727l1.1226,3.313-.813,.2754Z"/><path class="cls-1" d="M57.0674,10.1265l-.8867-7.6489,3.3765-.3911c.6118-.0713,1.1709-.0381,1.6777,.0986,.5068,.1372,.9531,.3564,1.3389,.6587,.3857,.3027,.6987,.6758,.9385,1.1206s.3911,.9399,.4546,1.4863,.0293,1.0654-.1021,1.5566c-.1313,.4917-.3486,.9263-.6514,1.3047-.3032,.3784-.688,.6929-1.1533,.9424-.4658,.2495-1.0044,.4097-1.6162,.4805l-3.3765,.3916Zm.7734-.7764l-.1157-.1416,2.5679-.2974c.4878-.0566,.9185-.1802,1.291-.3716,.373-.1904,.6768-.436,.9111-.7368,.2349-.2998,.4019-.6406,.502-1.0215,.0996-.3804,.1245-.7896,.0737-1.2266-.0498-.4297-.1665-.8169-.3506-1.1606-.1836-.3442-.4263-.6372-.7275-.8794-.3013-.2417-.6533-.415-1.0566-.5195-.4038-.1045-.8496-.1284-1.3374-.0723l-2.6006,.3018,.1157-.1465,.7271,6.272Z"/><path class="cls-1" d="M68.8672,9.2344l.751-7.6631,.8428,.0825,2.8896,5.0249-.3599-.0464,3.8413-4.3545,.8105,.0796-.751,7.6631-.8535-.0835,.3467-3.5469c.0557-.6357,.1191-1.2168,.1934-1.7441,.0732-.5269,.1699-1.0537,.2871-1.5801l.1006,.3306-3.5972,4.0024-.5913-.0581-2.6982-4.6079,.1636-.3159c.0156,.5176,.0088,1.0381-.0205,1.562-.0293,.5244-.0767,1.1221-.1426,1.7935l-.3584,3.5459-.854-.084Z"/><path class="cls-1" d="M80.9424,10.8628l5.5566-6.3164,.9863,.3125,.8916,8.3604-.9014-.2856-.6221-5.8286c-.0234-.1919-.042-.3726-.0527-.542-.0127-.1689-.0244-.3306-.0371-.4844-.0127-.1543-.0225-.311-.0293-.4712-.0078-.1597-.0137-.3291-.0186-.5078l.2314,.0732c-.1299,.1665-.2461,.3145-.3486,.4434-.1025,.1294-.2031,.2529-.3027,.3716-.0986,.1187-.2012,.2402-.3057,.3647-.1055,.1245-.2246,.2651-.3594,.4229l-3.8389,4.3564-.8496-.269Zm1.9746-1.5322l.5674-.6973,4.0479,1.2832-.0225,.8701-4.5928-1.4561Z"/><path class="cls-1" d="M92.1846,14.915l3.7314-6.7354,2.9736,1.6475c.5381,.2983,.9736,.6509,1.3066,1.0571,.332,.4062,.5674,.8447,.7051,1.3149,.1367,.4702,.1738,.9561,.1104,1.457-.0645,.5015-.2295,.9927-.4961,1.4736s-.5957,.8833-.9883,1.2061c-.3936,.3232-.8232,.5503-1.29,.6816s-.9619,.1631-1.4854,.0947c-.5244-.0684-1.0557-.2515-1.5947-.5503l-2.9727-1.647Zm1.0811-.1807l-.0127-.1831,2.2617,1.2529c.4297,.2383,.8516,.3882,1.2656,.4502,.4141,.0615,.8047,.0391,1.1699-.0688,.3652-.1074,.7002-.2871,1.0029-.5386s.5605-.5693,.7734-.9541c.21-.3784,.3408-.7612,.3916-1.1479,.0508-.3872,.0234-.7666-.0801-1.1387-.1045-.3721-.29-.7178-.5566-1.0376-.2676-.3198-.6162-.5991-1.0459-.8369l-2.29-1.269,.1797-.0513-3.0596,5.5229Z"/><path class="cls-1" d="M102.3242,21.188l4.9502-5.8984,4.2295,3.5498-.5371,.6406-3.5732-2.998-3.875,4.6172,3.5566,2.9839-.5381,.6406-4.2129-3.5356Zm2.6143-2.4302l.5371-.6406,3.4209,2.8711-.5371,.6401-3.4209-2.8706Z"/></g></g><g><path class="cls-1" d="M34.1523,62.4111v-11.2002h9.3916v2.6084h-6.3516v5.9839h6.5918v2.6079h-9.6318Zm1.5996-4.4482v-2.4639h7.1523v2.4639h-7.1523Z"/><path class="cls-1" d="M47.8643,62.4111v-11.2002h2.9277l6.6875,7.4561-.5596-.1597c-.0645-.4268-.1123-.8135-.1436-1.1602-.0322-.3467-.0615-.6743-.0889-.9839-.0264-.3096-.0479-.6079-.0635-.896s-.0244-.5864-.0244-.896v-3.3604h3.0566v11.2002h-2.96l-7.1045-8,1.0078,.272c.043,.2773,.083,.5337,.1201,.7681,.0371,.2349,.0664,.4722,.0879,.7119,.0215,.2402,.043,.499,.0645,.7759,.0215,.2778,.0342,.5923,.04,.9443,.0049,.3521,.0078,.752,.0078,1.1997v3.3281h-3.0557Z"/><path class="cls-1" d="M67.2393,62.4111v-8.4639h-4.0322v-2.7363h11.3281v2.7363h-4.1279v8.4639h-3.168Z"/><path class="cls-1" d="M78.0879,62.4111v-11.2002h5.8877c.8955,0,1.6611,.1499,2.2959,.4482,.6348,.2988,1.123,.7173,1.4639,1.2559,.3418,.5391,.5127,1.1763,.5127,1.9121,0,.7466-.1816,1.4082-.5449,1.9839-.3623,.5762-.8584,1.0269-1.4873,1.3521-.6299,.3257-1.3447,.4883-2.1445,.4883h-3.0078v3.7598h-2.9756Zm2.9756-6.0322h2.6084c.2773,0,.5225-.0557,.7354-.168,.2139-.1118,.3848-.2661,.5127-.4639,.1279-.1973,.1914-.4346,.1914-.7119,0-.2881-.0664-.5254-.2002-.7119-.1328-.1865-.3145-.3281-.5439-.4243-.2295-.0957-.4932-.1436-.792-.1436h-2.5117v2.6235Zm4.1602,6.0322l-3.3916-5.0562,3.2793-.3999,3.7119,5.4561h-3.5996Z"/><path class="cls-1" d="M92.5996,62.4111v-11.2002h9.3916v2.6084h-6.3516v5.9839h6.5918v2.6079h-9.6318Zm1.5996-4.4482v-2.4639h7.1523v2.4639h-7.1523Z"/><path class="cls-1" d="M34.1523,81.6113v-11.2002h2.7676l4.6562,6.4644-2.0479-.0161,4.6719-6.4482h2.7354v11.2002h-3.0557v-3.0879c0-.9175,.0215-1.7627,.0645-2.5361,.042-.7734,.1279-1.5547,.2559-2.3438l.3203,.9917-3.4727,4.48h-1.0557l-3.4561-4.5278,.3516-.9438c.1279,.7676,.2139,1.5356,.2559,2.3037,.043,.7681,.0645,1.627,.0645,2.5762v3.0879h-3.0557Z"/><path class="cls-1" d="M49.832,81.6113l5.0879-11.2002h2.7041l5.0713,11.2002h-3.1836l-2.5918-5.7441c-.1172-.2559-.2217-.4985-.3125-.728-.0908-.229-.1729-.4502-.248-.6641-.0742-.2129-.1465-.4292-.2158-.6479-.0693-.2183-.1357-.4453-.2002-.6797l.5928-.0161c-.0752,.2559-.1445,.4937-.208,.7119-.0645,.2188-.1387,.4351-.2246,.6479-.085,.2134-.1758,.4321-.2715,.6562-.0967,.2236-.1982,.4639-.3047,.7197l-2.5752,5.7441h-3.1201Zm2.4316-1.7598l.96-2.2402h6.0645l.624,2.2402h-7.6484Z"/><path class="cls-1" d="M70.1992,81.7715c-.8848,0-1.6904-.0854-2.416-.2563-.7256-.1704-1.3701-.4053-1.9355-.7036-.5654-.2988-1.0723-.6401-1.5205-1.0244l1.5361-2.3198c.7783,.6401,1.5576,1.0801,2.3359,1.3198,.7783,.2402,1.5039,.3604,2.1758,.3604,.2666,0,.5312-.0239,.792-.0723,.2617-.0479,.4834-.1304,.6641-.248,.1816-.1172,.2725-.2876,.2725-.5117,0-.1494-.0479-.2744-.1436-.376-.0967-.1016-.2275-.1865-.3926-.2563-.165-.0688-.3574-.1279-.5762-.1758s-.4609-.0903-.7275-.1279c-.2666-.0371-.5498-.0723-.8486-.104-.7031-.0962-1.333-.2402-1.8877-.4321s-1.0234-.4321-1.4082-.7197c-.3838-.2881-.6748-.6265-.8721-1.0161-.1973-.3892-.2959-.8403-.2959-1.3521,0-.5654,.1338-1.0747,.4004-1.5278,.2666-.4536,.6396-.8374,1.1201-1.1523,.4795-.3145,1.0322-.5518,1.6562-.7119s1.2822-.2397,1.9756-.2397c.8213,0,1.5361,.0718,2.1436,.2158,.6084,.144,1.1367,.3413,1.584,.5918,.4482,.251,.8271,.5308,1.1367,.8403l-1.6006,2c-.2881-.2134-.6152-.3945-.9834-.5439s-.75-.2642-1.1445-.3442-.7734-.1201-1.1357-.1201c-.374,0-.6963,.0269-.9678,.0801-.2725,.0537-.4912,.1362-.6562,.248s-.248,.2642-.248,.4561c0,.1709,.083,.312,.248,.4238,.165,.1123,.373,.2031,.624,.272,.25,.0698,.5117,.123,.7842,.1602,.2715,.0376,.5195,.0718,.7441,.104,.6182,.0747,1.2129,.1816,1.7832,.3198,.5713,.1392,1.0781,.3335,1.5205,.584,.4424,.251,.7891,.584,1.04,1,.25,.416,.376,.9497,.376,1.6001,0,.8003-.2266,1.48-.6797,2.04-.4541,.5601-1.0703,.9868-1.8486,1.2803-.7783,.293-1.6533,.4399-2.624,.4399Z"/><path class="cls-1" d="M77.3672,81.6113l5.0879-11.2002h2.7041l5.0723,11.2002h-3.1836l-2.5928-5.7441c-.1172-.2559-.2207-.4985-.3115-.728-.0908-.229-.1738-.4502-.248-.6641-.0752-.2129-.1465-.4292-.2158-.6479-.0693-.2183-.1367-.4453-.2002-.6797l.5918-.0161c-.0742,.2559-.1436,.4937-.208,.7119-.0635,.2188-.1387,.4351-.2236,.6479-.0859,.2134-.1758,.4321-.2725,.6562-.0957,.2236-.1973,.4639-.3037,.7197l-2.5762,5.7441h-3.1201Zm2.4326-1.7598l.96-2.2402h6.0635l.624,2.2402h-7.6475Z"/><path class="cls-1" d="M97.7354,81.7715c-.8857,0-1.6914-.0854-2.416-.2563-.7256-.1704-1.3711-.4053-1.9365-.7036-.5654-.2988-1.0713-.6401-1.5195-1.0244l1.5361-2.3198c.7783,.6401,1.5566,1.0801,2.3359,1.3198,.7783,.2402,1.5039,.3604,2.1758,.3604,.2666,0,.5303-.0239,.792-.0723,.2617-.0479,.4824-.1304,.6641-.248,.1816-.1172,.2715-.2876,.2715-.5117,0-.1494-.0479-.2744-.1436-.376s-.2266-.1865-.3916-.2563c-.166-.0688-.3574-.1279-.5762-.1758s-.4619-.0903-.7285-.1279c-.2666-.0371-.5488-.0723-.8477-.104-.7041-.0962-1.334-.2402-1.8877-.4321-.5547-.1919-1.0244-.4321-1.4082-.7197-.3838-.2881-.6748-.6265-.8721-1.0161-.1973-.3892-.2959-.8403-.2959-1.3521,0-.5654,.1328-1.0747,.3994-1.5278,.2666-.4536,.6406-.8374,1.1201-1.1523,.4805-.3145,1.0322-.5518,1.6562-.7119s1.2822-.2397,1.9756-.2397c.8213,0,1.5361,.0718,2.1445,.2158s1.1357,.3413,1.584,.5918c.4482,.251,.8262,.5308,1.1357,.8403l-1.5996,2c-.2881-.2134-.6162-.3945-.9844-.5439s-.749-.2642-1.1436-.3442c-.3955-.0801-.7734-.1201-1.1367-.1201-.373,0-.6953,.0269-.9678,.0801-.2715,.0537-.4902,.1362-.6562,.248-.165,.1118-.2471,.2642-.2471,.4561,0,.1709,.082,.312,.2471,.4238,.166,.1123,.374,.2031,.624,.272,.251,.0698,.5127,.123,.7842,.1602,.2725,.0376,.5205,.0718,.7441,.104,.6182,.0747,1.2129,.1816,1.7842,.3198,.5703,.1392,1.0771,.3335,1.5195,.584,.4434,.251,.79,.584,1.04,1,.251,.416,.376,.9497,.376,1.6001,0,.8003-.2266,1.48-.6797,2.04s-1.0693,.9868-1.8477,1.2803c-.7793,.293-1.6533,.4399-2.624,.4399Z"/></g><g><path class="cls-1" d="M16.0957,31.3071l.6797,.4492-1.9551,2.9536-.6797-.4492,1.9551-2.9536Z"/><path class="cls-1" d="M5.9297,43.4932l6.3027,5.5713-.3145,.9849-8.3623,.873,.2881-.9014,5.8301-.6084c.1914-.0229,.373-.0405,.542-.0518s.3311-.0234,.4854-.0356c.1533-.0122,.3105-.022,.4707-.0283,.1602-.0068,.3281-.0122,.5078-.0171l-.0742,.231c-.166-.1304-.3145-.2471-.4424-.3496-.1289-.103-.2529-.2036-.3711-.3032s-.2393-.2017-.3643-.3066c-.124-.1055-.2646-.2256-.4219-.3604l-4.3477-3.8486,.2715-.8491Zm1.5273,1.978l.6963,.5688-1.292,4.0444-.8711-.0239,1.4668-4.5894Z"/><path class="cls-1" d="M1.998,59.6274c.0771-.6777,.293-1.2563,.6465-1.7363s.8057-.8345,1.3555-1.063c.5508-.2285,1.1543-.3057,1.8096-.2305l4.3057,.4922-.0977,.8525-4.251-.4858c-.5107-.0586-.9766,.0024-1.3994,.1831-.4229,.1802-.7676,.4526-1.0352,.8174-.2656,.3643-.4277,.7871-.4824,1.2676-.0576,.5103,.002,.9761,.1777,1.3989,.1777,.4224,.4512,.7676,.8232,1.0352s.8125,.4307,1.3232,.4888l4.25,.4858-.0938,.8198-4.3164-.4937c-.6484-.0737-1.2148-.2847-1.6992-.6313-.4844-.3472-.8438-.7959-1.0801-1.3472-.2363-.5508-.3145-1.1689-.2363-1.8535Z"/><path class="cls-1" d="M1.7734,71.3315l6.8477-.4775-.1836-2.6338,.834-.0581,.4316,6.2002-.834,.0581-.1895-2.7104-6.8467,.4775-.0596-.856Z"/><path class="cls-1" d="M2.9141,80.5186l7.4482-1.9536,.2178,.8301-7.4482,1.9531-.2178-.8296Zm1.5234,5.8096l7.4482-1.9536,.2178,.8301-7.4482,1.9531-.2178-.8296Zm1.8711-6.2676l.8105-.2017,1.5078,5.7456-.8086,.2124-1.5098-5.7563Z"/><path class="cls-1" d="M7.0215,93.3325l6.9316-3.353,2.4043,4.9712-.752,.3638-2.0312-4.1987-5.4268,2.625,2.0215,4.1787-.7529,.3643-2.3945-4.9512Zm3.3799-1.1465l.7529-.3638,1.9443,4.02-.7529,.3643-1.9443-4.0205Z"/><path class="cls-1" d="M12.6592,103.729l6.1396-4.646,.5049,.6665-1.7646,8.77-.2246,.0317c.0996-.1118,.252-.252,.4551-.4199,.2041-.168,.4316-.3535,.6816-.5571,.251-.2036,.5039-.4067,.7598-.6094s.4961-.3892,.7217-.5596,.4082-.3086,.5479-.415l2.2549-1.7056,.5176,.6841-6.1396,4.646-.5254-.6929,1.7012-8.6533,.2246-.0869c-.1367,.1226-.2949,.2603-.4727,.4136-.1797,.1533-.3691,.313-.5693,.4785-.2012,.166-.3955,.3291-.582,.4888-.1875,.1602-.3633,.3042-.5273,.4336-.165,.1289-.2959,.231-.3955,.3062l-2.79,2.1108-.5176-.6841Z"/><path class="cls-1" d="M22.9688,115.5435l4.5957-5.0986-1.9609-1.7676,.5596-.6206,4.6162,4.1611-.5596,.6211-2.0186-1.8193-4.5957,5.0981-.6367-.5742Z"/><path class="cls-1" d="M29.9541,121.1475l.458-.7119,1.4062,.9058,3.2529-5.0488-1.4053-.9058,.459-.7119,3.5312,2.2759-.459,.7119-1.4043-.9053-3.2539,5.0488,1.4062,.9053-.459,.7119-3.5322-2.2759Z"/><path class="cls-1" d="M42.2842,127.9243c-.5615-.2363-1.042-.5425-1.4443-.9189s-.7109-.8022-.9238-1.2783c-.2139-.4756-.3223-.979-.3262-1.5093-.0029-.5308,.1074-1.063,.333-1.5967,.2158-.5137,.5146-.9492,.8955-1.3057,.3809-.3569,.8164-.6235,1.3047-.7998,.4873-.1763,1.002-.2544,1.542-.2334,.54,.0205,1.084,.146,1.6318,.3765,.3779,.1597,.7324,.3706,1.0645,.6333,.3301,.2627,.6133,.5508,.8477,.8643,.2334,.3135,.4014,.623,.5039,.9287l-.7812,.4351c-.1045-.2988-.2539-.5825-.4473-.8506-.1934-.2686-.4199-.5093-.6797-.7227-.2607-.2129-.5527-.3877-.877-.5244-.4121-.1738-.8301-.2695-1.252-.2881s-.8223,.0396-1.2012,.1743-.7188,.3418-1.0195,.6211c-.3008,.2788-.5371,.625-.7109,1.0371-.1826,.4326-.2695,.8594-.2598,1.2812s.1055,.8184,.2871,1.189c.1816,.3711,.4316,.7051,.748,1.0015s.6953,.5371,1.1348,.7222c.3438,.1455,.6797,.2354,1.0078,.2695,.3281,.0347,.6406,.0273,.9404-.0215,.2988-.0493,.5713-.1211,.8193-.2163l.1035,.8315c-.2539,.1084-.5625,.1812-.9277,.2183-.3662,.0366-.748,.0332-1.1465-.0117-.3994-.0449-.7891-.147-1.167-.3062Z"/><path class="cls-1" d="M57.7354,128.8643l.0986-.8076,3.5156,.4312-.0986,.8081-3.5156-.4316Z"/><path class="cls-1" d="M74.1797,132.4473l-1.2822-7.5923,.835-.1411,4.1055,4.0923-.3594,.0498,2.5664-5.2085,.8027-.1357,1.2832,7.5928-.8457,.1426-.5938-3.5142c-.1143-.6279-.2041-1.2056-.2715-1.7334-.0664-.5278-.1113-1.0615-.1357-1.6001l.1826,.2925-2.4238,4.8047-.585,.0991-3.8115-3.7407,.0752-.3472c.1514,.4951,.2803,.9995,.3896,1.5127s.2197,1.1025,.332,1.7681l.583,3.5156-.8467,.1431Z"/><path class="cls-1" d="M88.5195,129.1899l-2.7949-7.1753,5.1455-2.0039,.3037,.7788-4.3457,1.6929,2.1875,5.6172,4.3252-1.6846,.3037,.7788-5.125,1.9961Zm-.876-3.4604l-.3037-.7788,4.1621-1.6206,.3027,.7788-4.1611,1.6206Z"/><path class="cls-1" d="M99.3115,124.3799l-4.1191-6.5054,2.8721-1.8184c.5195-.3296,1.0381-.5425,1.5547-.6392,.5156-.0967,1.0127-.0928,1.4922,.0122,.4785,.105,.9219,.3057,1.3311,.6021s.7607,.6768,1.0547,1.1416,.4893,.9468,.584,1.4463c.0947,.5,.0889,.9858-.0205,1.4585s-.3184,.9224-.6299,1.3491c-.3115,.4272-.7275,.8052-1.2471,1.1348l-2.8721,1.8184Zm.3604-1.0352l-.166-.0771,2.1836-1.3828c.415-.2627,.75-.561,1.002-.895,.2539-.3335,.4199-.6865,.502-1.0591,.0801-.3726,.084-.752,.0078-1.1382-.0752-.3862-.2305-.7651-.4658-1.1372-.2314-.3652-.5049-.6631-.8193-.8936-.3154-.23-.6611-.3887-1.0371-.4761-.377-.0869-.7695-.0903-1.1777-.0093-.4092,.0811-.8213,.2529-1.2363,.5156l-2.2119,1.4004,.041-.1821,3.3779,5.3345Z"/><path class="cls-1" d="M109.9258,116.8643l-.5723-.6235,1.2314-1.1309-4.0635-4.4233-1.2305,1.1309-.5732-.624,3.0947-2.8423,.5723,.624-1.2305,1.1309,4.0625,4.4233,1.2314-1.1309,.5732,.6235-3.0957,2.8423Z"/><path class="cls-1" d="M116.8232,110.0986l-4.0498-7.3735,.6289-.8208,8.166,2.0049-.5762,.751-5.6914-1.3979c-.1895-.043-.3652-.0879-.5273-.1343-.1641-.0464-.3203-.0898-.4688-.1304-.1494-.0405-.3008-.085-.4531-.1328-.1523-.0474-.3145-.0996-.4834-.1558l.1475-.1919c.1123,.1787,.2119,.3384,.2988,.4785,.0859,.1401,.168,.2773,.2461,.4106,.0781,.1338,.1572,.271,.2383,.4116,.082,.1411,.1738,.3018,.2754,.4814l2.791,5.0923-.542,.707Zm-.7686-2.3779l-.4629-.7705,2.583-3.3696,.8115,.3169-2.9316,3.8232Z"/><path class="cls-1" d="M124.4512,99.0884l-6.8535-3.5103,.3906-.7637,6.1094,3.1294,2.0762-4.0532,.7441,.3809-2.4668,4.8169Z"/><path class="cls-1" d="M130.083,85.7988c-.1934,.6543-.5059,1.187-.9365,1.5986-.4316,.4116-.9375,.6826-1.5195,.813-.5811,.1304-1.1885,.1021-1.8213-.085l-4.1572-1.2275,.2441-.8228,4.1035,1.2119c.4922,.1455,.9619,.1655,1.4102,.061,.4473-.105,.834-.314,1.1602-.6265,.3252-.313,.5566-.7017,.6934-1.166,.1455-.4922,.168-.9614,.0664-1.4082s-.3125-.834-.6318-1.1616-.7256-.5645-1.2178-.71l-4.1045-1.2119,.2334-.791,4.168,1.2305c.625,.1851,1.1465,.4902,1.5645,.9155s.6943,.9297,.832,1.5132c.1367,.5835,.1074,1.2056-.0869,1.8667Z"/><path class="cls-1" d="M132.2119,75.9404l-7.6768-.5903,.0635-.8335,7.1338-5.3979,.1895,.1245c-.1484,.0181-.3555,.0225-.6191,.0132s-.5576-.0205-.8799-.0347c-.3232-.0137-.6475-.0293-.9736-.0469-.3252-.0176-.6289-.0376-.9102-.0591s-.5098-.0391-.6855-.0527l-2.8184-.2168,.0645-.8555,7.6777,.5903-.0664,.8662-7.0088,5.3525-.2256-.0835c.1836-.0005,.3945,.001,.6289,.0044,.2354,.0034,.4824,.0093,.7432,.0186,.2607,.0088,.5137,.0156,.7598,.0195,.2461,.0044,.4736,.0127,.6826,.0249,.208,.0127,.375,.0234,.499,.0332l3.4873,.2681-.0654,.8555Z"/><path class="cls-1" d="M132.666,62.8535l-8.0605-2.4087-.1289-1.0264,7.2236-4.3037,.1162,.9385-5.0352,3.0005c-.1641,.1021-.3203,.1934-.4697,.2749-.1484,.0811-.29,.1597-.4248,.2358-.1348,.0757-.2734,.1504-.416,.2236s-.293,.1494-.4531,.2285l-.0303-.2402c.2061,.0483,.3887,.0918,.5479,.1309,.1602,.0396,.3154,.0791,.4648,.1196,.1484,.0405,.3027,.0825,.459,.1255,.1562,.0435,.335,.0933,.5332,.1499l5.5625,1.6675,.1113,.8838Zm-2.2168-1.1533l-.8711-.2241-.5254-4.2134,.7988-.3433,.5977,4.7808Z"/><path class="cls-1" d="M129.6367,46.9917c.1396,.4331,.2188,.8584,.2373,1.2759s-.0225,.8218-.124,1.2124c-.1016,.3911-.2695,.7627-.502,1.1152l-.8281-.3115c.3418-.5415,.543-1.0605,.6025-1.5571,.0596-.4971,.0068-1.0034-.1592-1.5205-.1289-.3979-.2988-.7417-.5117-1.0312-.2129-.29-.4531-.4995-.7227-.6289-.2676-.1289-.5352-.1509-.8008-.0659-.1953,.063-.3418,.1641-.4395,.3032-.0977,.1396-.167,.3022-.207,.4888-.04,.186-.0586,.3882-.0527,.6064,.0039,.2178,.0195,.4385,.0449,.6611,.0254,.2231,.0527,.438,.0801,.6445,.0508,.4224,.0801,.8135,.0879,1.1733,.0078,.3594-.0273,.6865-.1055,.9814s-.209,.543-.3906,.7437c-.1816,.2012-.4365,.3545-.7656,.46-.3135,.1011-.6201,.123-.9199,.0649-.2998-.0576-.582-.1846-.8457-.3809-.2627-.1963-.4941-.4512-.6953-.7642-.2012-.3125-.3652-.668-.4941-1.0659-.1387-.4331-.2129-.8384-.2227-1.2163-.0098-.3784,.0361-.7358,.1396-1.0737,.1035-.3374,.2627-.6489,.4795-.9341l.7646,.3662c-.1787,.2578-.3145,.5308-.4072,.8184-.0918,.2881-.1396,.5825-.1426,.8838-.0039,.3018,.0449,.6094,.1465,.9238,.1211,.377,.2803,.6914,.4766,.9438,.1973,.2529,.4141,.437,.6523,.5532s.4824,.1338,.7334,.0527c.21-.0674,.3701-.1768,.4834-.3286s.1855-.3389,.2188-.5615c.0312-.2222,.0381-.478,.0176-.7686-.0195-.29-.0557-.6113-.1074-.9644-.0547-.3833-.0898-.7573-.1074-1.1216-.0156-.3643,.0059-.7026,.0664-1.0151,.0625-.312,.1807-.5776,.3574-.7964,.1758-.2183,.4355-.3823,.7773-.4927,.4326-.1392,.8574-.1367,1.2734,.0068,.415,.1431,.7881,.4106,1.1182,.8013,.3291,.3906,.5947,.897,.7939,1.5181Z"/><path class="cls-1" d="M120.293,34.4199l-.6797,.4473-1.9473-2.959,.6797-.4473,1.9473,2.959Z"/></g><g><polygon class="cls-1" points="84.5801 100.6754 84.5801 97.984 70.4021 97.984 70.4021 100.6754 84.5801 100.6754 84.5801 100.6754"/><polygon class="cls-1" points="68.2437 100.7015 68.2437 97.9579 66.5259 97.9579 66.5259 100.7015 68.2437 100.7015 68.2437 100.7015"/><polygon class="cls-1" points="70.3906 99.6946 70.3906 98.9137 68.2391 98.9137 68.2391 99.6946 70.3906 99.6946 70.3906 99.6946"/><path class="cls-1" d="M56.0044,101.9434c-1.3779,0-2.2183-.3491-2.7261-.7319-.6016-.4541-.9199-1.1001-.9219-1.8677v-.1196c.002-.7681,.3203-1.4141,.9219-1.8677,.854-.645,2.6543-1.1938,6.3784-.1406,4.0947,1.1587,6.8965,1.2422,6.9238,1.2427l-.0059,.251c-.0283-.001-2.8589-.0845-6.9863-1.2524-2.8262-.7998-5.0132-.7637-6.1592,.0991-.5361,.4048-.8203,.9819-.8218,1.6685v.1187c.0015,.6865,.2856,1.2632,.8218,1.668,1.1455,.8638,3.3325,.8994,6.1592,.0991,4.1304-1.1689,6.9653-1.1475,6.9907-1.1479l-.0029,.251c-.0264-.0005-2.8281-.0195-6.9194,1.1382-1.5132,.4282-2.7085,.5918-3.6523,.5918Z"/><path class="cls-1" d="M56.3027,100.1089c-3.0942,0-4.9692-.2588-5.3174-.5874-.0703-.0664-.0854-.1328-.0859-.1772v-.1201c.0005-.0454,.0156-.1118,.0859-.1782,.46-.4331,3.5781-.7441,8.6431-.5015,4.0142,.1929,6.936,.5562,6.9648,.5596l-.0269,.2144h0l.0225,.25c-.0288,.0024-2.9482,.2627-6.9604,.4551-1.2261,.0591-2.3379,.0854-3.3257,.0854Zm.0244-1.3989c-3.377,0-5.0571,.3115-5.1797,.5298l.0029,.1035c.1543,.2646,2.8813,.6963,8.4663,.4302,3.459-.1665,6.104-.3828,6.7808-.4404-.6689-.0781-3.3164-.3721-6.7808-.5386-1.2354-.0591-2.3311-.0845-3.2896-.0845Z"/><path class="cls-1" d="M55.8311,101.3813c-1.8403,0-2.7642-.4502-3.2065-.8062-.4121-.3315-.6309-.7573-.6323-1.2314v-.1196c.0015-.4746,.2202-.9004,.6323-1.2319,.6792-.5464,2.4956-1.3149,7.0244-.334,3.8901,.8433,6.9053,1.0137,6.9355,1.0156l-.0137,.25c-.0303-.0015-3.064-.1729-6.9746-1.0205-3.2344-.7012-5.7178-.5986-6.8145,.2842-.3564,.2861-.5376,.6353-.5386,1.0371v.1187c.001,.4014,.1821,.7505,.5386,1.0366,1.0967,.8828,3.5811,.9868,6.8145,.2842,3.9126-.8481,6.9487-.9155,6.979-.9165l.0049,.251c-.0298,.0005-3.0435,.0679-6.9312,.9106-1.5806,.3428-2.8311,.4722-3.8179,.4722Z"/><path class="cls-1" d="M56.1279,100.7256c-2.313,0-3.688-.4146-4.2227-.8794-.228-.1982-.2764-.3823-.2773-.5024v-.1196c.001-.1206,.0493-.3047,.2773-.5029,.7642-.665,3.248-1.2271,7.7339-.6201,3.8955,.5259,6.9189,.7852,6.9492,.7876l-.0215,.25c-.0298-.0029-3.0596-.2622-6.9609-.7896-4.7061-.6338-6.9521,.0547-7.5366,.561-.124,.1084-.1899,.2168-.1904,.3145v.1187c.0005,.0972,.0664,.2056,.1904,.314,.5845,.5078,2.8301,1.1978,7.5366,.561,3.9038-.5273,6.9351-.6836,6.9653-.6851l.0127,.25c-.0303,.0015-3.0518,.1572-6.9448,.6831-1.3486,.1826-2.5166,.2593-3.5112,.2593Z"/><path class="cls-1" d="M55.8286,102.4404c-1.7109,0-2.7456-.4878-3.3022-.8818-.7769-.5503-1.2251-1.335-1.2622-2.21l-.0005-.1245c.0376-.8804,.4858-1.665,1.2627-2.2153,.8896-.6289,2.9976-1.4966,7.1328-.2368,4.1123,1.2539,6.8999,1.4702,6.9277,1.4722l-.0186,.25c-.0278-.002-2.8408-.2197-6.9824-1.4819-4.0322-1.23-6.064-.4023-6.9146,.2012-.7124,.5044-1.123,1.2202-1.1572,2.0161l.0005,.1138c.0337,.7905,.4443,1.5063,1.1567,2.0107,.8516,.6035,2.8813,1.4316,6.9146,.2012,4.144-1.2632,6.9595-1.376,6.9873-1.3774l.0088,.251c-.0273,.001-2.813,.1133-6.9229,1.3667-1.5459,.4712-2.8091,.645-3.8306,.645Z"/><path class="cls-1" d="M55.0498,102.9985c-1.6011,0-2.605-.4111-3.228-.8716-.8535-.6313-1.2988-1.5942-1.2871-2.7852v-.1177c-.0117-1.1895,.4336-2.1523,1.2871-2.7837,1.0981-.812,3.3799-1.4688,8.022,.0044,3.5303,1.1211,6.7197,1.5806,6.7515,1.585l-.0352,.248c-.0322-.0044-3.2407-.4668-6.7925-1.5938-3.5415-1.125-6.311-1.1396-7.7964-.042-.7866,.5815-1.1968,1.4741-1.1855,2.5806v.1206c-.0112,1.1079,.3989,2.0005,1.1855,2.582,1.4839,1.0981,4.2539,1.0835,7.7964-.042,3.5537-1.1279,6.7646-1.4863,6.7964-1.4897l.0273,.249c-.0317,.0034-3.2192,.3599-6.7476,1.48-2.0073,.6372-3.5737,.876-4.7939,.876Z"/></g></svg>