<?xml version="1.0" encoding="utf-8"?>
<!-- Generator: Adobe Illustrator 26.2.1, SVG Export Plug-In . SVG Version: 6.00 Build 0)  -->
<svg version="1.1" id="Layer_1" xmlns="http://www.w3.org/2000/svg" xmlns:xlink="http://www.w3.org/1999/xlink" x="0px" y="0px"
	 viewBox="0 0 255 255" style="enable-background:new 0 0 255 255;" xml:space="preserve">
<style type="text/css">
	.st0{fill:#2C201E;}
	.st1{fill:#FEF8EB;}
	.st2{fill:#724E3E;}
</style>
<g id="a">
</g>
<g id="b">
	<g id="c">
		<g>
			<circle class="st0" cx="127.5" cy="127.5" r="127.5"/>
			<g>
				<g>
					<path class="st1" d="M26.9,121.4v-16.2h13.6v3.8h-9.2v8.7h9.5v3.8L26.9,121.4L26.9,121.4z M29.2,115v-3.6h10.3v3.6H29.2z"/>
					<path class="st1" d="M46.2,121.4v-16.2h4.2l9.7,10.8l-0.8-0.2c-0.1-0.6-0.2-1.2-0.2-1.7s-0.1-1-0.1-1.4c0-0.4-0.1-0.9-0.1-1.3
						c0-0.4,0-0.8,0-1.3v-4.9h4.4v16.2H59l-10.3-11.6l1.5,0.4c0.1,0.4,0.1,0.8,0.2,1.1c0,0.3,0.1,0.7,0.1,1c0,0.3,0.1,0.7,0.1,1.1
						s0,0.9,0.1,1.4c0,0.5,0,1.1,0,1.7v4.8L46.2,121.4L46.2,121.4z"/>
					<path class="st1" d="M73.7,121.4v-12.2h-5.8v-4h16.4v4h-6v12.2C78.2,121.4,73.6,121.4,73.7,121.4z"/>
					<path class="st1" d="M88.8,121.4v-16.2h8.5c1.3,0,2.4,0.2,3.3,0.7s1.6,1,2.1,1.8c0.5,0.8,0.7,1.7,0.7,2.8s-0.3,2-0.8,2.9
						s-1.2,1.5-2.2,2s-1.9,0.7-3.1,0.7h-4.3v5.4L88.8,121.4L88.8,121.4z M93.1,112.7h3.8c0.4,0,0.8-0.1,1.1-0.2
						c0.3-0.2,0.6-0.4,0.7-0.7c0.2-0.3,0.3-0.6,0.3-1s-0.1-0.8-0.3-1s-0.5-0.5-0.8-0.6s-0.7-0.2-1.2-0.2H93L93.1,112.7L93.1,112.7z
						 M99.1,121.4l-4.9-7.3l4.7-0.6l5.4,7.9H99.1L99.1,121.4z"/>
					<path class="st1" d="M109.2,121.4v-16.2h13.6v3.8h-9.2v8.7h9.5v3.8L109.2,121.4L109.2,121.4z M111.5,115v-3.6h10.3v3.6H111.5z"
						/>
					<path class="st1" d="M128.4,121.4v-16.2h4l6.7,9.3l-3,0l6.8-9.3h4v16.2h-4.4v-4.5c0-1.3,0-2.6,0.1-3.7s0.2-2.2,0.4-3.4l0.5,1.4
						l-5,6.5h-1.5l-5-6.6l0.5-1.4c0.2,1.1,0.3,2.2,0.4,3.3s0.1,2.3,0.1,3.7v4.5H128.4L128.4,121.4z"/>
					<path class="st1" d="M150.5,121.4l7.4-16.2h3.9l7.3,16.2h-4.6l-3.8-8.3c-0.2-0.4-0.3-0.7-0.4-1.1c-0.1-0.3-0.2-0.7-0.4-1
						s-0.2-0.6-0.3-0.9c-0.1-0.3-0.2-0.6-0.3-1l0.9,0c-0.1,0.4-0.2,0.7-0.3,1s-0.2,0.6-0.3,0.9c-0.1,0.3-0.2,0.6-0.4,0.9
						c-0.1,0.3-0.3,0.7-0.4,1l-3.7,8.3L150.5,121.4L150.5,121.4z M154,118.8l1.4-3.2h8.8l0.9,3.2H154z"/>
					<path class="st1" d="M179.4,121.6c-1.3,0-2.4-0.1-3.5-0.4s-2-0.6-2.8-1s-1.6-0.9-2.2-1.5l2.2-3.4c1.1,0.9,2.2,1.6,3.4,1.9
						c1.1,0.3,2.2,0.5,3.1,0.5c0.4,0,0.8,0,1.1-0.1c0.4-0.1,0.7-0.2,1-0.4c0.3-0.2,0.4-0.4,0.4-0.7c0-0.2-0.1-0.4-0.2-0.5
						c-0.1-0.2-0.3-0.3-0.6-0.4c-0.2-0.1-0.5-0.2-0.8-0.2c-0.3-0.1-0.7-0.1-1.1-0.2c-0.4-0.1-0.8-0.1-1.2-0.2
						c-1-0.1-1.9-0.3-2.7-0.6c-0.8-0.3-1.5-0.6-2-1s-1-0.9-1.3-1.5c-0.3-0.6-0.4-1.2-0.4-2c0-0.8,0.2-1.6,0.6-2.2s0.9-1.2,1.6-1.7
						s1.5-0.8,2.4-1s1.9-0.3,2.9-0.3c1.2,0,2.2,0.1,3.1,0.3s1.6,0.5,2.3,0.9c0.6,0.4,1.2,0.8,1.6,1.2L184,110
						c-0.4-0.3-0.9-0.6-1.4-0.8s-1.1-0.4-1.7-0.5c-0.6-0.1-1.1-0.2-1.6-0.2s-1,0-1.4,0.1s-0.7,0.2-0.9,0.4s-0.4,0.4-0.4,0.7
						c0,0.2,0.1,0.4,0.4,0.6s0.5,0.3,0.9,0.4s0.7,0.2,1.1,0.2s0.8,0.1,1.1,0.2c0.9,0.1,1.8,0.3,2.6,0.5s1.6,0.5,2.2,0.8
						c0.6,0.4,1.1,0.8,1.5,1.4s0.5,1.4,0.5,2.3c0,1.2-0.3,2.1-1,2.9c-0.7,0.8-1.6,1.4-2.7,1.8C182.1,121.4,180.8,121.6,179.4,121.6
						L179.4,121.6z"/>
					<path class="st1" d="M189.2,121.4l7.4-16.2h3.9l7.3,16.2h-4.6l-3.8-8.3c-0.2-0.4-0.3-0.7-0.4-1.1c-0.1-0.3-0.2-0.7-0.4-1
						s-0.2-0.6-0.3-0.9c-0.1-0.3-0.2-0.6-0.3-1l0.9,0c-0.1,0.4-0.2,0.7-0.3,1s-0.2,0.6-0.3,0.9c-0.1,0.3-0.2,0.6-0.4,0.9
						c-0.1,0.3-0.3,0.7-0.4,1l-3.7,8.3L189.2,121.4L189.2,121.4z M192.7,118.8l1.4-3.2h8.8l0.9,3.2H192.7z"/>
					<path class="st1" d="M218.1,121.6c-1.3,0-2.4-0.1-3.5-0.4s-2-0.6-2.8-1s-1.6-0.9-2.2-1.5l2.2-3.4c1.1,0.9,2.2,1.6,3.4,1.9
						c1.1,0.3,2.2,0.5,3.1,0.5c0.4,0,0.8,0,1.1-0.1c0.4-0.1,0.7-0.2,1-0.4c0.3-0.2,0.4-0.4,0.4-0.7c0-0.2-0.1-0.4-0.2-0.5
						c-0.1-0.2-0.3-0.3-0.6-0.4c-0.2-0.1-0.5-0.2-0.8-0.2c-0.3-0.1-0.7-0.1-1.1-0.2c-0.4-0.1-0.8-0.1-1.2-0.2
						c-1-0.1-1.9-0.3-2.7-0.6c-0.8-0.3-1.5-0.6-2-1s-1-0.9-1.3-1.5c-0.3-0.6-0.4-1.2-0.4-2c0-0.8,0.2-1.6,0.6-2.2s0.9-1.2,1.6-1.7
						s1.5-0.8,2.4-1s1.9-0.3,2.9-0.3c1.2,0,2.2,0.1,3.1,0.3s1.6,0.5,2.3,0.9c0.6,0.4,1.2,0.8,1.6,1.2l-2.3,2.9
						c-0.4-0.3-0.9-0.6-1.4-0.8s-1.1-0.4-1.7-0.5c-0.6-0.1-1.1-0.2-1.6-0.2s-1,0-1.4,0.1s-0.7,0.2-0.9,0.4s-0.4,0.4-0.4,0.7
						c0,0.2,0.1,0.4,0.4,0.6s0.5,0.3,0.9,0.4s0.7,0.2,1.1,0.2s0.8,0.1,1.1,0.2c0.9,0.1,1.8,0.3,2.6,0.5s1.6,0.5,2.2,0.8
						c0.6,0.4,1.1,0.8,1.5,1.4s0.5,1.4,0.5,2.3c0,1.2-0.3,2.1-1,2.9c-0.7,0.8-1.6,1.4-2.7,1.8C220.7,121.4,219.5,121.6,218.1,121.6
						L218.1,121.6z"/>
				</g>
				<g>
					<path class="st1" d="M25.8,141.3l8.7-1.8l0.3,1.6l-8.7,1.8L25.8,141.3z M27.1,147.9l8.7-1.8l0.3,1.6l-8.7,1.8
						C27.5,149.5,27.1,147.9,27.1,147.9z M29.5,141.3L31,141l1.3,6.6l-1.5,0.3L29.5,141.3z"/>
					<path class="st1" d="M29.3,156.2c-0.2-0.6-0.2-1.3-0.1-1.9s0.4-1.1,0.8-1.6c0.4-0.4,0.9-0.8,1.5-1c0.6-0.2,1.3-0.2,1.9-0.1
						c0.6,0.1,1.1,0.4,1.6,0.8s0.8,1,1,1.6c0.1,0.4,0.2,0.8,0.2,1.1s0,0.7-0.1,1c-0.1,0.3-0.2,0.6-0.4,0.8c-0.2,0.2-0.3,0.4-0.5,0.5
						l-0.1-0.4l1.6-0.5l0.5,1.5l-6.3,2.1l-0.5-1.5l1.6-0.5l0.1,0.3c-0.2,0-0.4,0-0.7-0.1c-0.3-0.1-0.5-0.2-0.8-0.5s-0.5-0.5-0.7-0.8
						C29.6,156.9,29.4,156.6,29.3,156.2L29.3,156.2z M30.7,156.2c0.1,0.4,0.4,0.8,0.6,1.1s0.6,0.5,1,0.6c0.4,0.1,0.7,0.1,1.1-0.1
						c0.4-0.1,0.7-0.3,0.9-0.6s0.4-0.6,0.4-1c0.1-0.4,0-0.8-0.1-1.2c-0.1-0.4-0.3-0.8-0.6-1.1c-0.3-0.3-0.6-0.5-1-0.6
						s-0.7-0.1-1.1,0.1c-0.4,0.1-0.7,0.3-0.9,0.6s-0.4,0.6-0.5,1C30.5,155.3,30.6,155.7,30.7,156.2L30.7,156.2z"/>
					<path class="st1" d="M32.3,164.2l6.1-2.7l0.6,1.4l-1.5,0.7l-0.3-0.3c0.3,0,0.7,0.1,1.1,0.2s0.7,0.3,1,0.6
						c0.3,0.3,0.6,0.6,0.8,1.1c0.2,0.6,0.3,1.1,0.3,1.5c0,0.5-0.2,0.9-0.5,1.2s-0.7,0.7-1.2,0.9l-3.6,1.6l-0.6-1.4l3.4-1.5
						c0.3-0.1,0.6-0.3,0.7-0.6c0.2-0.2,0.3-0.5,0.3-0.8s0-0.6-0.2-0.9c-0.1-0.3-0.3-0.5-0.5-0.7c-0.2-0.2-0.4-0.3-0.6-0.4
						c-0.2-0.1-0.4-0.1-0.7-0.1c-0.2,0-0.4,0-0.6,0.1l-3.4,1.5l-0.3-0.7c-0.1-0.2-0.2-0.4-0.2-0.5S32.3,164.3,32.3,164.2L32.3,164.2
						z"/>
					<path class="st1" d="M38.3,176.7c-0.3-0.6-0.5-1.2-0.5-1.8s0.1-1.2,0.4-1.7s0.7-0.9,1.3-1.3c0.6-0.3,1.2-0.5,1.8-0.5
						c0.6,0,1.2,0.2,1.7,0.5c0.5,0.3,1,0.8,1.3,1.4c0.2,0.4,0.4,0.7,0.5,1.1s0.1,0.7,0.1,1s-0.1,0.6-0.2,0.9s-0.2,0.4-0.4,0.5
						l-0.2-0.3l3.8-2.2l0.8,1.3l-8.1,4.7l-0.8-1.3l1.5-0.9l0.1,0.3c-0.2,0.1-0.4,0.1-0.7,0.1c-0.3,0-0.5-0.1-0.8-0.3
						s-0.6-0.4-0.8-0.6S38.5,177.1,38.3,176.7L38.3,176.7z M39.7,176.4c0.2,0.4,0.5,0.7,0.9,0.9c0.3,0.2,0.7,0.3,1.1,0.3
						s0.7-0.1,1.1-0.3c0.3-0.2,0.6-0.5,0.8-0.8c0.2-0.3,0.2-0.7,0.2-1.1c0-0.4-0.2-0.8-0.4-1.2c-0.2-0.4-0.5-0.7-0.8-0.9
						c-0.3-0.2-0.7-0.3-1.1-0.3s-0.7,0.1-1.1,0.3c-0.3,0.2-0.6,0.5-0.8,0.8s-0.2,0.7-0.2,1.1S39.5,176,39.7,176.4L39.7,176.4z"/>
					<path class="st1" d="M42.8,183.8l5.3-4.1l0.9,1.2l-1.3,1l-0.2-0.3c0.2-0.1,0.5-0.1,0.7-0.1s0.5,0.1,0.8,0.2s0.6,0.2,0.8,0.4
						c0.3,0.2,0.5,0.4,0.8,0.7c0.2,0.3,0.4,0.7,0.5,1s0.1,0.7,0,1s-0.3,0.7-0.6,1l-0.2-0.4l0.2,0c0.2,0,0.5,0,0.7,0s0.5,0.1,0.8,0.2
						s0.5,0.3,0.8,0.4c0.3,0.2,0.5,0.4,0.7,0.7c0.4,0.5,0.6,1,0.7,1.4c0,0.4,0,0.9-0.3,1.3s-0.6,0.8-1,1.1l-3.1,2.4l-1-1.2l3-2.3
						c0.3-0.2,0.5-0.4,0.6-0.6s0.2-0.5,0.2-0.7s-0.1-0.5-0.3-0.8c-0.2-0.2-0.4-0.4-0.6-0.6c-0.2-0.1-0.5-0.2-0.7-0.3s-0.5-0.1-0.7,0
						c-0.2,0.1-0.5,0.2-0.7,0.3l-2.8,2.2l-1-1.2l3-2.3c0.2-0.2,0.4-0.4,0.6-0.6c0.1-0.2,0.2-0.5,0.1-0.8c0-0.3-0.2-0.6-0.4-0.8
						c-0.2-0.2-0.4-0.4-0.6-0.5s-0.5-0.2-0.7-0.2c-0.2,0-0.5,0-0.7,0s-0.4,0.1-0.5,0.2l-2.9,2.3L42.8,183.8L42.8,183.8z"/>
					<path class="st1" d="M54.8,198.3c-0.5-0.5-0.8-1-1-1.6s-0.2-1.2,0-1.8s0.5-1.1,0.9-1.6c0.5-0.5,1-0.8,1.6-0.9
						c0.6-0.1,1.2-0.1,1.8,0s1.1,0.5,1.6,1c0.3,0.3,0.5,0.6,0.7,0.9c0.2,0.3,0.3,0.6,0.4,0.9s0.1,0.6,0,0.9c0,0.3-0.1,0.5-0.3,0.6
						l-0.3-0.3l1.2-1.2l1.1,1.1l-4.7,4.7l-1.1-1.1l1.2-1.2l0.2,0.3c-0.2,0.1-0.4,0.2-0.7,0.2s-0.6,0-0.9-0.1c-0.3-0.1-0.6-0.2-1-0.4
						C55.4,198.8,55.1,198.6,54.8,198.3L54.8,198.3z M56,197.6c0.3,0.3,0.7,0.6,1.1,0.7s0.8,0.1,1.1,0.1s0.7-0.3,1-0.6
						c0.3-0.3,0.5-0.6,0.5-1c0.1-0.4,0.1-0.7-0.1-1.1c-0.1-0.4-0.3-0.7-0.7-1.1c-0.3-0.3-0.7-0.6-1-0.7s-0.7-0.1-1.1-0.1
						c-0.4,0.1-0.7,0.3-1,0.6c-0.3,0.3-0.5,0.6-0.5,1c-0.1,0.4-0.1,0.7,0,1.1S55.7,197.3,56,197.6L56,197.6z"/>
					<path class="st1" d="M63.1,205.9c-0.5-0.4-0.9-0.9-1.2-1.5s-0.3-1.1-0.2-1.7s0.4-1.1,0.8-1.7s0.9-0.9,1.5-1.1
						c0.6-0.2,1.1-0.3,1.8-0.1c0.6,0.1,1.2,0.4,1.7,0.8c0.3,0.3,0.6,0.5,0.8,0.9s0.4,0.6,0.5,0.9s0.2,0.6,0.2,0.9s-0.1,0.5-0.2,0.7
						l-0.4-0.2l2.8-3.4l1.2,1l-5.9,7.3l-1.2-0.9l1-1.4l0.2,0.2c-0.1,0.2-0.3,0.3-0.6,0.3c-0.2,0.1-0.5,0.1-0.9,0s-0.7-0.1-1-0.3
						C63.7,206.3,63.4,206.1,63.1,205.9L63.1,205.9z M64.2,205c0.4,0.3,0.7,0.5,1.1,0.6s0.8,0.1,1.1-0.1s0.7-0.3,0.9-0.7
						c0.2-0.3,0.4-0.6,0.4-1c0.1-0.4,0-0.7-0.2-1.1s-0.4-0.7-0.8-1c-0.3-0.3-0.7-0.5-1.1-0.6s-0.8-0.1-1.1,0.1
						c-0.3,0.1-0.7,0.3-0.9,0.6c-0.2,0.3-0.4,0.7-0.5,1c0,0.4,0,0.7,0.2,1.1C63.6,204.4,63.9,204.7,64.2,205L64.2,205z"/>
					<path class="st1" d="M72.5,212.7c-0.7-0.4-1.2-0.9-1.6-1.5s-0.6-1.2-0.6-1.8c0-0.6,0.2-1.2,0.5-1.7c0.3-0.4,0.6-0.8,1.1-1.1
						s0.8-0.4,1.3-0.5s1,0,1.4,0.1c0.5,0.1,1,0.3,1.4,0.6c0.4,0.3,0.8,0.6,1.1,1s0.5,0.8,0.6,1.2s0.2,0.9,0.1,1.3s-0.2,0.9-0.5,1.2
						L77,212l-5.3-3.5l0.3-1.1l4.5,2.9l-0.3,0l0.2-0.2c0.1-0.2,0.2-0.5,0.1-0.8c-0.1-0.3-0.2-0.5-0.4-0.8s-0.4-0.5-0.7-0.7
						c-0.4-0.3-0.8-0.4-1.2-0.5c-0.4-0.1-0.8-0.1-1.1,0.1c-0.3,0.1-0.6,0.4-0.9,0.8c-0.2,0.4-0.3,0.7-0.3,1.1c0,0.4,0.2,0.8,0.4,1.2
						s0.6,0.7,1.1,1c0.4,0.3,0.8,0.5,1.2,0.5s0.7,0.1,1.1,0.1v1.3c-0.3,0-0.7,0-1-0.1c-0.4-0.1-0.7-0.2-1.1-0.3
						C73.2,213,72.8,212.9,72.5,212.7L72.5,212.7z"/>
					<path class="st1" d="M82.4,218.3l7.2-6.5l1.5,0.7l0,9.7l-1.6-0.7l0-6c0-0.1,0-0.3,0-0.5s0-0.4,0-0.6s0-0.4,0-0.6
						c0-0.2,0-0.4,0-0.5l0.3,0.1c-0.1,0.1-0.3,0.3-0.4,0.4c-0.1,0.1-0.3,0.3-0.4,0.4s-0.3,0.3-0.4,0.4s-0.3,0.3-0.4,0.4l-4.4,4
						L82.4,218.3L82.4,218.3z M84.8,217.2l1.1-1.1l4.3,1.9l-0.2,1.5L84.8,217.2L84.8,217.2z"/>
					<path class="st1" d="M96.4,224.1c-0.5-0.2-0.9-0.4-1.2-0.8c-0.3-0.4-0.5-0.8-0.6-1.3c-0.1-0.5,0-1.1,0.2-1.7l1.1-3.5l1.5,0.5
						l-1,3.1c-0.1,0.4-0.2,0.8-0.2,1.1c0,0.3,0.1,0.6,0.3,0.8s0.5,0.4,0.9,0.5c0.3,0.1,0.5,0.1,0.8,0.1c0.2,0,0.5-0.1,0.7-0.2
						c0.2-0.1,0.4-0.2,0.6-0.4s0.3-0.4,0.4-0.7l1.1-3.3l1.5,0.5l-2,6.3l-1.4-0.5l0.4-1.3l0.3-0.1c-0.2,0.2-0.4,0.4-0.8,0.6
						s-0.7,0.3-1.1,0.3S96.9,224.2,96.4,224.1L96.4,224.1z"/>
					<path class="st1" d="M104.8,220.9l0.3-1.4l5.2,1.1L110,222L104.8,220.9z M105.4,226.4l1.8-8.4l1.5,0.3l-1.8,8.4L105.4,226.4z"
						/>
					<path class="st1" d="M112.5,227.7l1-9.3l1.5,0.2l-0.5,4.3l-0.4,0.1c0.1-0.3,0.3-0.6,0.7-0.8s0.7-0.4,1.1-0.6s0.9-0.2,1.3-0.1
						c0.6,0.1,1.1,0.2,1.5,0.5s0.6,0.6,0.8,1.1c0.2,0.4,0.2,0.9,0.1,1.5l-0.4,4l-1.6-0.2l0.4-3.7c0-0.3,0-0.6-0.1-0.9
						s-0.3-0.5-0.5-0.6s-0.5-0.3-0.8-0.3c-0.3,0-0.6,0-0.8,0.1c-0.2,0.1-0.5,0.2-0.7,0.3s-0.3,0.3-0.5,0.5s-0.2,0.4-0.2,0.6
						l-0.4,3.7l-0.8-0.1c-0.2,0-0.4,0-0.5-0.1C112.6,227.8,112.5,227.8,112.5,227.7L112.5,227.7z"/>
					<path class="st1" d="M126.9,228.9c-0.8,0-1.5-0.1-2.2-0.4c-0.6-0.3-1.1-0.7-1.4-1.2s-0.5-1.1-0.5-1.7c0-0.5,0.1-1,0.3-1.5
						c0.2-0.4,0.5-0.8,0.8-1.1c0.4-0.3,0.8-0.5,1.3-0.7c0.5-0.2,1-0.2,1.6-0.2c0.5,0,1,0.1,1.4,0.2c0.4,0.2,0.8,0.4,1.2,0.7
						c0.3,0.3,0.6,0.6,0.8,1c0.2,0.4,0.3,0.8,0.2,1.3v0.6H124l-0.3-1.1h5.4l-0.2,0.2v-0.3c0-0.3-0.1-0.5-0.4-0.7s-0.4-0.4-0.8-0.5
						s-0.6-0.2-1-0.2c-0.5,0-0.9,0.1-1.3,0.2c-0.4,0.1-0.7,0.4-0.9,0.7c-0.2,0.3-0.3,0.7-0.3,1.2c0,0.4,0.1,0.8,0.3,1.1
						s0.6,0.6,1,0.8s0.9,0.3,1.5,0.3c0.5,0,1-0.1,1.3-0.2c0.4-0.1,0.7-0.3,0.9-0.5l0.7,1.1c-0.2,0.2-0.6,0.4-0.9,0.5
						s-0.7,0.3-1.1,0.4C127.7,228.8,127.3,228.9,126.9,228.9L126.9,228.9z"/>
					<path class="st1" d="M134.1,228.5l-0.7-6.6l1.5-0.2l0.2,1.6l-0.4,0.1c0.1-0.3,0.3-0.6,0.5-1c0.2-0.3,0.6-0.6,0.9-0.8
						s0.8-0.4,1.2-0.4c0.6-0.1,1.1,0,1.6,0.2c0.4,0.2,0.8,0.5,1,0.9c0.2,0.4,0.4,0.9,0.5,1.4l0.4,4l-1.6,0.2l-0.4-3.8
						c0-0.3-0.1-0.6-0.3-0.9s-0.4-0.4-0.6-0.5c-0.3-0.1-0.6-0.1-0.9-0.1c-0.3,0-0.6,0.1-0.8,0.2c-0.2,0.1-0.4,0.3-0.6,0.5
						c-0.2,0.2-0.3,0.4-0.3,0.6s-0.1,0.4-0.1,0.6l0.4,3.7l-0.8,0.1c-0.2,0-0.4,0-0.5,0.1S134.2,228.5,134.1,228.5L134.1,228.5z"/>
					<path class="st1" d="M143.2,222.1l-0.3-1.4l5.2-1.1l0.3,1.4L143.2,222.1z M145.9,226.8l-1.8-8.4l1.5-0.3l1.8,8.4L145.9,226.8z"
						/>
					<path class="st1" d="M151.4,217.1c-0.3,0.1-0.6,0.1-0.8,0c-0.2-0.1-0.4-0.3-0.4-0.6c-0.1-0.3-0.1-0.5,0.1-0.7
						c0.1-0.2,0.3-0.4,0.6-0.4c0.3-0.1,0.6-0.1,0.8,0c0.2,0.1,0.4,0.3,0.4,0.6c0.1,0.2,0.1,0.5-0.1,0.7
						C151.9,216.9,151.7,217,151.4,217.1L151.4,217.1z M152.9,225.2l-1.8-6.4l1.5-0.4l1.8,6.4L152.9,225.2z"/>
					<path class="st1" d="M161.4,222.5c-0.7,0.3-1.4,0.3-2,0.3s-1.2-0.3-1.7-0.7s-0.9-0.9-1.1-1.5c-0.2-0.6-0.3-1.2-0.1-1.8
						c0.1-0.6,0.4-1.1,0.8-1.6c0.4-0.5,1-0.9,1.6-1.1c0.6-0.2,1.3-0.4,1.9-0.4c0.6,0,1.2,0.1,1.6,0.4l-0.4,1.4
						c-0.2-0.1-0.5-0.2-0.8-0.2s-0.6-0.1-0.9-0.1c-0.3,0-0.6,0.1-0.9,0.2c-0.4,0.2-0.8,0.4-1,0.7s-0.4,0.6-0.5,1s0,0.7,0.1,1.1
						s0.4,0.7,0.7,0.9s0.6,0.4,1,0.4c0.4,0.1,0.8,0,1.2-0.2c0.3-0.1,0.6-0.3,0.8-0.4c0.2-0.2,0.4-0.4,0.6-0.6s0.3-0.4,0.4-0.6
						l1.2,0.8c-0.2,0.4-0.6,0.8-1.1,1.2S162,222.3,161.4,222.5L161.4,222.5z"/>
					<path class="st1" d="M172.6,217.5l-4.5-7.6l1.3-0.8l5.8,2.5l-0.7,0.4l0.6-6.2l1.3-0.8l4.5,7.6l-1.4,0.8l-1.7-2.9
						c-0.4-0.6-0.7-1.2-1-1.8s-0.5-1.1-0.8-1.7l0.4,0.4l-0.6,5.3l-0.7,0.4l-4.9-2.1l-0.1-0.6c0.4,0.5,0.8,1,1.1,1.5s0.7,1.1,1.1,1.7
						l1.7,2.9L172.6,217.5L172.6,217.5z"/>
					<path class="st1" d="M187.1,208.2c-0.6,0.5-1.3,0.8-2,0.9c-0.7,0.1-1.3,0.1-1.9-0.1s-1.1-0.6-1.5-1.1c-0.3-0.4-0.5-0.9-0.6-1.4
						s-0.1-0.9,0-1.4c0.1-0.5,0.3-0.9,0.6-1.3s0.6-0.8,1.1-1.1c0.4-0.3,0.8-0.5,1.3-0.7c0.4-0.1,0.9-0.2,1.3-0.2s0.9,0.1,1.2,0.4
						c0.4,0.2,0.7,0.5,1,0.9l0.4,0.5l-5.1,3.9l-0.9-0.7l4.3-3.2l-0.1,0.3l-0.2-0.2c-0.2-0.2-0.4-0.3-0.7-0.3c-0.3,0-0.6,0-0.9,0.1
						c-0.3,0.1-0.6,0.2-0.9,0.5c-0.4,0.3-0.7,0.6-0.9,0.9s-0.3,0.7-0.3,1.1c0,0.4,0.2,0.7,0.5,1.1c0.2,0.3,0.6,0.6,0.9,0.7
						c0.4,0.1,0.8,0.1,1.2,0c0.4-0.1,0.9-0.4,1.4-0.7c0.4-0.3,0.7-0.6,0.9-0.9c0.2-0.3,0.4-0.6,0.4-0.9l1.2,0.4
						c-0.1,0.3-0.2,0.6-0.4,0.9s-0.4,0.6-0.7,0.9S187.4,208,187.1,208.2L187.1,208.2z"/>
					<path class="st1" d="M194.6,201.9c-0.5,0.5-1.1,0.8-1.6,0.9c-0.6,0.1-1.2,0.1-1.8-0.1s-1.1-0.5-1.6-1c-0.5-0.5-0.8-1-0.9-1.6
						s-0.1-1.2,0.1-1.8c0.2-0.6,0.5-1.1,1.1-1.6c0.3-0.3,0.6-0.5,0.9-0.7c0.3-0.2,0.7-0.3,1-0.3c0.3-0.1,0.6-0.1,0.9,0
						c0.2,0,0.5,0.1,0.6,0.3l-0.3,0.3l-3-3.2l1.1-1.1l6.4,6.8l-1.1,1l-1.2-1.2l0.3-0.1c0.1,0.2,0.2,0.4,0.2,0.6c0,0.3,0,0.6-0.1,0.9
						c-0.1,0.3-0.2,0.6-0.4,0.9C195.1,201.4,194.9,201.7,194.6,201.9L194.6,201.9z M194,200.7c0.3-0.3,0.6-0.7,0.7-1
						c0.1-0.4,0.2-0.8,0.1-1.1s-0.2-0.7-0.5-1c-0.3-0.3-0.6-0.5-0.9-0.6c-0.4-0.1-0.7-0.1-1.1,0c-0.4,0.1-0.7,0.3-1.1,0.6
						c-0.3,0.3-0.6,0.6-0.7,1s-0.2,0.7-0.1,1.1s0.2,0.7,0.5,1c0.3,0.3,0.6,0.5,0.9,0.6c0.4,0.1,0.7,0.1,1.1,0S193.7,201,194,200.7
						L194,200.7z"/>
					<path class="st1" d="M194.9,189.9c-0.2,0.2-0.4,0.4-0.7,0.4s-0.4-0.1-0.7-0.3c-0.2-0.2-0.3-0.4-0.3-0.6c0-0.2,0.1-0.5,0.3-0.7
						c0.2-0.2,0.4-0.4,0.7-0.4c0.2,0,0.5,0.1,0.7,0.3c0.2,0.2,0.3,0.4,0.3,0.6C195.2,189.4,195.1,189.7,194.9,189.9L194.9,189.9z
						 M200.4,195.9l-4.9-4.5l1.1-1.1l4.9,4.5L200.4,195.9L200.4,195.9z"/>
					<path class="st1" d="M206.1,189.5c-0.4,0.5-0.9,0.9-1.5,1.2c-0.6,0.2-1.1,0.3-1.7,0.2c-0.6-0.1-1.2-0.3-1.7-0.7
						c-0.5-0.4-0.9-0.9-1.1-1.5c-0.2-0.6-0.3-1.1-0.2-1.8c0.1-0.6,0.4-1.2,0.8-1.7c0.2-0.3,0.5-0.6,0.8-0.8c0.3-0.2,0.6-0.4,0.9-0.5
						c0.3-0.1,0.6-0.1,0.9-0.1s0.5,0.1,0.7,0.2l-0.2,0.3l-1.3-1l1-1.2l5.3,4.1l-1,1.2l-1.4-1.1l0.2-0.2c0.1,0.1,0.3,0.4,0.3,0.6
						s0.1,0.6,0.1,0.9c0,0.3-0.1,0.7-0.2,1C206.5,188.9,206.3,189.2,206.1,189.5L206.1,189.5z M205.2,188.4c0.3-0.4,0.5-0.7,0.5-1.1
						c0.1-0.4,0-0.8-0.1-1.1s-0.4-0.6-0.7-0.9c-0.3-0.2-0.7-0.4-1-0.4s-0.7,0-1.1,0.2c-0.4,0.2-0.7,0.4-1,0.8
						c-0.3,0.4-0.5,0.7-0.5,1.1c-0.1,0.4-0.1,0.8,0.1,1.1s0.4,0.6,0.7,0.9c0.3,0.2,0.6,0.4,1,0.4c0.4,0,0.7,0,1.1-0.2
						S204.9,188.7,205.2,188.4L205.2,188.4z"/>
					<path class="st1" d="M210.9,182.7l-7.8-5.1l0.9-1.3l7.8,5.1L210.9,182.7z"/>
					<path class="st1" d="M215.3,175.6c-0.3,0.5-0.6,0.8-1,1.1s-0.9,0.3-1.4,0.3c-0.5,0-1.1-0.2-1.6-0.5l-3.2-1.8l0.7-1.4l2.9,1.6
						c0.4,0.2,0.8,0.3,1.1,0.4c0.3,0,0.6,0,0.9-0.2c0.3-0.1,0.5-0.4,0.7-0.8c0.1-0.2,0.2-0.5,0.2-0.7s0-0.5,0-0.7s-0.2-0.5-0.3-0.7
						s-0.4-0.4-0.6-0.5l-3.1-1.7l0.7-1.4l5.8,3.2l-0.7,1.3l-1.2-0.6v-0.3c0.2,0.2,0.4,0.5,0.4,0.9s0.1,0.8,0.1,1.2
						C215.7,174.8,215.5,175.2,215.3,175.6L215.3,175.6z"/>
					<path class="st1" d="M219.1,168l-6.1-2.5l0.6-1.4l1.5,0.6l-0.1,0.4c-0.2-0.2-0.4-0.6-0.6-0.9s-0.2-0.8-0.3-1.2
						c0-0.4,0.1-0.9,0.2-1.3c0.2-0.6,0.5-1,0.9-1.3c0.4-0.3,0.8-0.4,1.3-0.5s1,0.1,1.5,0.3l3.7,1.5l-0.6,1.4l-3.5-1.4
						c-0.3-0.1-0.6-0.2-0.9-0.1s-0.5,0.1-0.8,0.3c-0.2,0.2-0.4,0.4-0.5,0.8c-0.1,0.3-0.2,0.5-0.2,0.8s0,0.5,0.1,0.7s0.2,0.4,0.4,0.6
						c0.1,0.2,0.3,0.3,0.5,0.4l3.4,1.4l-0.3,0.7c-0.1,0.2-0.1,0.4-0.2,0.5S219.1,167.9,219.1,168L219.1,168z"/>
					<path class="st1" d="M223.9,155.1c-0.2,0.6-0.5,1.2-0.9,1.6c-0.4,0.4-0.9,0.7-1.5,0.8c-0.6,0.1-1.2,0.1-1.8-0.1
						c-0.6-0.2-1.2-0.5-1.6-0.9s-0.7-1-0.8-1.6s-0.1-1.2,0.1-1.9c0.1-0.4,0.3-0.8,0.5-1.1s0.4-0.6,0.7-0.8c0.2-0.2,0.5-0.4,0.7-0.4
						s0.5-0.1,0.7-0.1l-0.1,0.4l-1.6-0.5l0.4-1.5l6.4,1.9l-0.4,1.5l-1.7-0.5l0.1-0.3c0.2,0.1,0.4,0.2,0.5,0.5
						c0.2,0.2,0.3,0.5,0.4,0.8c0.1,0.3,0.1,0.6,0.1,1C224.1,154.3,224.1,154.7,223.9,155.1L223.9,155.1z M222.7,154.3
						c0.1-0.4,0.2-0.9,0.1-1.2c-0.1-0.4-0.2-0.7-0.5-1c-0.2-0.3-0.6-0.5-0.9-0.6c-0.4-0.1-0.8-0.1-1.1,0c-0.4,0.1-0.7,0.3-0.9,0.6
						c-0.3,0.3-0.5,0.7-0.6,1.1s-0.2,0.9-0.1,1.2s0.2,0.7,0.5,1c0.2,0.3,0.6,0.5,0.9,0.6c0.4,0.1,0.8,0.1,1.1,0
						c0.4-0.1,0.7-0.3,0.9-0.6C222.4,155.1,222.6,154.7,222.7,154.3L222.7,154.3z"/>
					<path class="st1" d="M226.6,144.4c-0.1,0.7-0.4,1.3-0.7,1.9s-0.7,0.9-1.2,1.2l-0.7-1.1c0.3-0.2,0.6-0.5,0.9-0.9
						c0.2-0.4,0.4-0.8,0.5-1.3c0-0.2,0.1-0.4,0.1-0.5s0-0.3,0-0.5c0-0.2-0.1-0.3-0.2-0.4s-0.2-0.2-0.3-0.2c-0.2,0-0.4,0.1-0.6,0.4
						c-0.1,0.1-0.2,0.3-0.3,0.6c-0.1,0.2-0.2,0.5-0.3,0.8c-0.2,0.5-0.4,0.9-0.6,1.2c-0.2,0.4-0.4,0.6-0.6,0.8
						c-0.2,0.2-0.4,0.3-0.6,0.3s-0.5,0.1-0.8,0c-0.3-0.1-0.6-0.2-0.8-0.4c-0.2-0.2-0.4-0.4-0.5-0.8c-0.1-0.3-0.2-0.6-0.2-1
						c0-0.4,0-0.8,0.1-1.2c0.1-0.4,0.2-0.7,0.3-1.1c0.1-0.4,0.3-0.7,0.6-1s0.5-0.6,0.7-0.8l0.8,1c-0.2,0.2-0.4,0.4-0.5,0.6
						c-0.2,0.2-0.3,0.5-0.4,0.8s-0.2,0.5-0.3,0.8c0,0.2-0.1,0.4-0.1,0.5s0,0.3,0,0.5c0,0.2,0.1,0.3,0.1,0.4c0.1,0.1,0.2,0.2,0.3,0.2
						c0.1,0,0.2,0,0.3,0s0.2-0.1,0.2-0.2c0.1-0.1,0.2-0.3,0.4-0.6c0.1-0.2,0.2-0.5,0.4-0.9c0.2-0.5,0.4-0.9,0.6-1.2
						c0.2-0.4,0.4-0.6,0.6-0.8c0.2-0.2,0.4-0.3,0.6-0.4c0.2-0.1,0.4-0.1,0.7,0c0.4,0.1,0.8,0.3,1,0.6s0.4,0.7,0.5,1.2
						C226.7,143.3,226.7,143.8,226.6,144.4L226.6,144.4z"/>
				</g>
				<path class="st2" d="M129,142.8c-4.2-0.4-11.8-0.6-20.5,2.7c-9.3,3.6-15.3,9.4-18.2,12.7c-0.5,2.1-1,5.1-0.8,8.7
					c0.2,4.7,1.5,8.4,2.4,10.7c0.8-3.3,3.7-13.1,12.7-20.2c11.6-9.1,24.6-6.9,27.1-6.5c17.2,8.6,21.4,9.5,21.9,8.6
					c0.7-1.3-5.2-6.2-6.2-7.1C140.5,146.5,133.5,144,129,142.8L129,142.8z"/>
				<g>
					<g>
						<path class="st1" d="M106.2,184.6c-10.7,9.4-18.1-3.7-13.4-13.7l0.3,1.8c-2.2-2-4.1-4.6-4.1-7.8c0.2-8.7,10.2-12.7,13.6-19.6
							c13.9-8.3,33.9-9.3,46.1,2.6c5.8,5.6,9.9,13.1,10.7,21.2c0.9,9.4-4.4,15.7-13.9,15.7c3.6-0.8,7.4-2.1,9.5-5.2
							c2.1-2.9,2.2-6.7,1.6-10.2c-2.2-10.4-9.8-20-19.9-23.7c-10.2-3.6-21.7-1.7-31.2,3.3l0.9-1c-2.9,4.9-7.3,7.5-10.9,11.4
							c-1.6,1.7-2.9,3.6-2.9,5.4c-0.2,2.1,1.7,4.6,3.4,6.4C90.9,179.8,95.3,191.5,106.2,184.6L106.2,184.6L106.2,184.6z"/>
						<path class="st1" d="M109.4,143.9c-0.7,3.4,0.1,6.4,0.7,9.6c0.5,2.4,1,4.8,1.7,7.1c0.3,0.8,0.5,1.6,1,2.3
							c-1.8-0.5-2.9-2.2-3.9-3.8C106.6,154.8,105.2,147.6,109.4,143.9C109.4,143.9,109.4,143.9,109.4,143.9z"/>
						<path class="st1" d="M98.6,152.9c0.1,2.5,1.4,5.6,2.1,8c0.8,2.4,1.4,5.7,2.6,7.9C98.4,167.4,95.1,156.6,98.6,152.9L98.6,152.9
							L98.6,152.9z"/>
						<path class="st1" d="M127.2,140.8c-4.5,3.6-4.5,11.5-4.6,16.8c0.1,0.9,0.1,1.8,0.5,2.6c-0.9-0.4-1.4-1.4-1.9-2.2
							C118.6,152.5,119.9,141.5,127.2,140.8L127.2,140.8L127.2,140.8z"/>
						<path class="st1" d="M148.8,150.6c-6.2-1.8-11.7,1.4-14,7.3c-0.8,1.8-1.2,3.9-1.5,6.1C128.9,154.3,140.1,142.8,148.8,150.6
							L148.8,150.6L148.8,150.6z"/>
						<path class="st1" d="M152.9,175.8c1.2,5.6-6.4,2.3-9,1.4c-5.2-2.1-10.2-4.5-15.4-6.4c-4.7-1.6-10.3-3.5-15.1-1.3
							c-3.1,0.8-6.5,3.7-6.9,7c-0.1,1,0.4,1.8,1.2,2.6l-1-0.1c2.8-1.4,0.8-5.5-1.5-6.4c-0.9-0.4-2-0.6-3.1-0.5
							c1-0.3,2.2-0.4,3.3-0.1c2.9,0.7,5.2,4.3,3.6,7.2c-0.4,0.8-1.2,1.3-1.9,1.8l-0.5-0.4c-3.1-2-2.8-5.7-1-8.4
							c1.7-2.5,3.9-4.4,6.8-5.3l-0.3,0.1C126.7,159.1,153.9,186.1,152.9,175.8L152.9,175.8L152.9,175.8z"/>
					</g>
					<path class="st1" d="M106,182.4c0.4,3.9,0.4,7.9-0.3,11.8l-0.7-1.6c13.4,5.7,28.5,6.9,42.5,3l-1,2.8c-3-5.8-2.6-13.3,1.8-18.2
						c-1.1,2.8-1.6,5.7-1.3,8.6c0.3,3.6,2,6.7,4.1,9.5c-7.9,3.6-16.7,5.2-25.4,4.4c-8.2-0.7-16.2-3.6-23.1-8.2
						C104,190.5,105,186.5,106,182.4L106,182.4L106,182.4z"/>
					<polygon class="st1" points="112.1,196.3 115.7,182.9 115.1,196.7 112.1,196.3 					"/>
					<polygon class="st1" points="119.3,198.6 121.2,187.4 122.3,198.7 119.3,198.6 					"/>
					<polygon class="st1" points="127.5,198.4 127.5,189.3 130.4,197.9 127.5,198.4 					"/>
				</g>
			</g>
		</g>
	</g>
</g>
</svg>
