<?xml version="1.0" encoding="UTF-8"?><svg id="Layer_1" xmlns="http://www.w3.org/2000/svg" width="460" height="150" xmlns:xlink="http://www.w3.org/1999/xlink" viewBox="0 0 460 150"><defs><style>.cls-1{fill:url(#linear-gradient-2);}.cls-1,.cls-2,.cls-3,.cls-4{isolation:isolate;}.cls-1,.cls-2,.cls-4{opacity:.7;}.cls-2{fill:url(#linear-gradient-4);}.cls-5{opacity:.4;}.cls-3{fill:url(#linear-gradient-3);opacity:.9;}.cls-4{fill:url(#linear-gradient);}.cls-6{fill:#5a78ff;}</style><linearGradient id="linear-gradient" x1="-218.83" y1="364.79" x2="-218.82" y2="364.94" gradientTransform="translate(40339.98 76846.5) rotate(-22.5) scale(35.66 -236.73)" gradientUnits="userSpaceOnUse"><stop offset="0" stop-color="#504678"/><stop offset=".3" stop-color="#504678" stop-opacity=".62"/><stop offset=".61" stop-color="#504678" stop-opacity=".28"/><stop offset=".85" stop-color="#504678" stop-opacity=".08"/><stop offset="1" stop-color="#504678" stop-opacity="0"/></linearGradient><linearGradient id="linear-gradient-2" x1="-206.35" y1="358.22" x2="-206.34" y2="358.37" gradientTransform="translate(-43442.05 -85798.7) rotate(157.5) scale(35.66 -267.97)" xlink:href="#linear-gradient"/><linearGradient id="linear-gradient-3" x1="-213.83" y1="363.55" x2="-213.75" y2="363.6" gradientTransform="translate(97667.29 139884.4) scale(456.48 -384.56)" gradientUnits="userSpaceOnUse"><stop offset="0" stop-color="#504678"/><stop offset=".18" stop-color="#504678" stop-opacity=".87"/><stop offset=".53" stop-color="#504678" stop-opacity=".54"/><stop offset="1" stop-color="#504678" stop-opacity="0"/></linearGradient><linearGradient id="linear-gradient-4" x1="-213.76" y1="363.61" x2="-213.77" y2="363.65" gradientTransform="translate(97667.29 139884.4) scale(456.48 -384.56)" gradientUnits="userSpaceOnUse"><stop offset="0" stop-color="#504678"/><stop offset=".64" stop-color="#504678" stop-opacity=".33"/><stop offset="1" stop-color="#504678" stop-opacity="0"/></linearGradient></defs><path class="cls-6" d="M55.79,150c-5.07,0-9.64-3.09-11.58-7.83L.96,36.51c-2.65-6.47,.39-13.88,6.78-16.56L53.03,.97c6.39-2.68,13.71,.39,16.36,6.85h0l43.25,105.67c2.64,6.46-.39,13.87-6.78,16.55l-45.3,19c-1.51,.64-3.13,.96-4.77,.97h0ZM57.83,6.82c-.76,0-1.51,.15-2.21,.45L10.31,26.26c-2.95,1.24-4.35,4.66-3.13,7.64h0l43.25,105.67c1.22,2.98,4.6,4.4,7.55,3.17l45.3-19c2.95-1.24,4.35-4.66,3.13-7.64h0L63.16,10.43c-.9-2.18-3-3.61-5.34-3.61h0Z"/><path class="cls-4" d="M66.02,17.4l6.23-2.61,17.12,41.84-6.23,2.61-17.12-41.84Z"/><path class="cls-1" d="M109.76,106.46l-6.23,2.61-19.38-47.36,6.23-2.61,19.38,47.36Z"/><path class="cls-6" d="M95.67,77.68c-12.96,5.44-23.77,12.93-30.86,21.96l-18.26-44.63c8.33-9.79,18.93-17.34,30.86-21.96,12.96-5.44,26.04-8.07,37.17-6.53l18.27,44.63c-12.73-.97-25.51,1.28-37.17,6.54Z"/><g class="cls-5"><path class="cls-3" d="M95.67,77.68c-12.96,5.44-23.77,12.93-30.86,21.96l-18.26-44.63c8.33-9.79,18.93-17.34,30.86-21.96,12.96-5.44,26.04-8.07,37.17-6.53l18.27,44.63c-12.73-.97-25.51,1.28-37.17,6.54h0Z"/><path class="cls-2" d="M95.67,77.68c-12.96,5.44-23.77,12.93-30.86,21.96l-18.26-44.63c8.33-9.79,18.93-17.34,30.86-21.96,12.96-5.44,26.04-8.07,37.17-6.53l18.27,44.63c-12.73-.97-25.51,1.28-37.17,6.54h0Z"/></g><path class="cls-6" d="M101.8,91.22c-13.97,0-26.76,2.73-36.67,8.31V54.57c11.36-5.8,23.96-8.65,36.67-8.31,13.97,0,27.01,2.62,36.67,8.32v44.96c-11.35-5.8-23.96-8.66-36.67-8.32Zm71.32,.1l11.4-36.47c.12-.51,.55-.88,1.06-.92h5.72c.51,.07,.94,.43,1.12,.92l8.88,23.01c.17,.46,.63,.5,.78,0l8.81-23.01c.18-.49,.61-.85,1.12-.92h5.72c.51,.04,.94,.41,1.06,.92l11.27,36.47c.2,.44,.02,.96-.41,1.16-.13,.06-.28,.09-.43,.08h-6.8c-.48,.02-.91-.31-1.01-.79l-7.23-23.69c-.11-.46-.63-.46-.78,0l-8.64,23.51c-.15,.57-.65,.96-1.23,.96h-4c-.63,0-.95-.35-1.19-.96l-8.81-23.51c-.17-.46-.63-.46-.73,0l-7.41,23.69c-.12,.49-.56,.82-1.06,.79h-6.48c-.47,0-.84-.39-.83-.87,0-.13,.03-.26,.1-.38h0Zm58.96-13.04c-.17-8.41,6.43-15.36,14.74-15.52,8.31-.17,15.17,6.51,15.34,14.91s-6.43,15.36-14.74,15.52c-.1,0-.2,0-.3,0-8.03,.28-14.76-6.09-15.04-14.21,0-.24-.01-.47,0-.71Zm22.35,.05c-.27-4.15-3.84-7.28-7.95-6.96-3.85,.3-6.92,3.75-6.81,7.66s3.44,7.32,7.46,7.28c4.18-.18,7.43-3.75,7.26-7.98h.04Zm20.97,11.89c-.56-.46-1.28,.5-1.28,.5v.78c0,.58-.43,1.05-.97,1.07h-5.05c-.55-.02-.99-.49-1.01-1.07V55c.02-.58,.46-1.05,1.01-1.07h5.52s1.01,.66,.5,1.23v10.35c.51,.74,1,.96,1.8,.39,2.12-1.6,4.69-2.47,7.33-2.48,7.65,0,13.52,6.52,13.52,14.92,.36,7.87-5.66,14.54-13.43,14.91-.11,0-.21,0-.32,.01-2.82-.03-5.53-1.11-7.61-3.04h0Zm13.79-11.87c.35-4.69-3.65-8.7-8.55-7.96-1.39,.21-2.72,.84-3.75,1.8-1.79,1.67-2.61,3.94-2.44,6.16-.16,4.18,3.06,7.69,7.19,7.85,.05,0,.09,0,.14,0,4.19-.09,7.51-3.61,7.42-7.84v0Zm12.19-21.59c0-2.4,1.92-4.35,4.3-4.35s4.3,1.95,4.3,4.35-1.92,4.35-4.3,4.35-4.3-1.95-4.3-4.35Zm-.13,34.83v-26.42c0-.57,.47-1.05,1.06-1.07h5.79c.63-.02,1.17,.45,1.19,1.07h0v26.33c-.02,.58-.5,1.05-1.1,1.07h-5.88c-.59-.02-1.06-.5-1.06-1.07v.09Zm14.07-8.82v-27.77c0-.57,.43-1.04,.98-1.07h5.82s1.03,.65,1.23,1.23v27.94c-.18,1.8,.59,3,2.55,3,.58,0,.47,1.07,.47,1.07v4.46c-.02,.57-.47,1.02-1.02,1.02-7.15,0-10.03-2.44-10.03-9.89h0Zm13.35-4.43c.03-8.31,6.71-15.03,14.93-15,8.21,.03,14.85,6.79,14.82,15.11,0,1.05-.29,1.91-1.32,1.91h-19.67c-.51,0-.68,.29-.64,.76,.49,3.49,3.57,5.99,7.04,5.72,2.09,.03,4.08-.88,5.43-2.49,.42-.6,1.1-.95,1.83-.94h5.26c.92,0,1.32,.65,.97,1.56-3.67,7.56-12.7,10.69-20.17,6.98-5.15-2.56-8.42-7.85-8.43-13.66l-.04,.04Zm20.74-2.04c.39,0,.56-.17,.49-.63-.59-3.12-3.31-5.36-6.45-5.31-3.07,0-5.74,2.13-6.45,5.15-.11,.39,0,.78,.45,.78h11.95Zm13.13,15.17V54.99c0-.57,.44-1.03,1-1.06h17.46c7.97,0,13.41,4.7,13.41,12.62s-6.16,12.8-13.8,12.8h-9.01c-.52-.06-.98,.33-1.03,.86,0,.08,0,.16,0,.24v11.02c-.02,.6-.49,1.08-1.07,1.1h-5.91c-.58-.01-1.05-.5-1.05-1.1h0Zm18.29-18.28c3.3-.11,5.89-2.88,5.81-6.22,.1-3.17-2.37-5.82-5.5-5.92-.11,0-.22,0-.32,0h-9.22c-.56,0-1.01,.46-1.01,1.02v10.17c0,.67,.28,1.01,.94,1.01l9.31-.06Zm15.87,4.98c-.31-7.93,6.01-14.61,14.12-14.91,.07,0,.14,0,.21,0,2.84,.02,5.57,1.04,7.69,2.89,.51,.46,1.09,.39,1.09-.28v-.74c0-.56,.45-1.02,1.01-1.02h5.33s1.03,.6,1.7,1.18v18.66c-.65,1.41-.15,2.04,.81,2.17,.5,.01,1.2,.91,1.2,.91v4.8c0,.53-.44,.96-.98,.96h0c-3.82,0-6.07-1.07-7.34-3.22-.36-.57-.76-.67-1.33-.11-2.44,2.46-5.81,3.83-9.31,3.78-8.09-.23-14.45-6.83-14.22-14.74,0-.11,0-.22,.01-.33Zm23.2,.11c.31-4.11-2.73-7.69-6.79-8.01-4.06-.31-7.6,2.76-7.91,6.87-.03,.38-.03,.76,0,1.14-.31,4.11,2.73,7.69,6.79,8.01,4.06,.31,7.6-2.76,7.91-6.87,.03-.38,.03-.76,0-1.14Zm11.97,24.2v-4.63c.36-.57,.83-1.02,1.39-1.02,3.6,.27,6.91-1.97,8.04-5.44,.19-.73,.11-1.5-.21-2.17l-10.27-23.53c-.27-.49-.1-1.12,.39-1.39,.16-.09,.34-.13,.52-.2h5.52c.56,.07,.9,.53,1.12,1.09l6.45,15.05c.45,1.2,1.18,1.13,1.68,0l6.15-15.09c.21-.57,.49-.91,1.05-.03h5.31c.53-.91,.99-.5,1.02,.04,0,.14-.02,.29-.07,.42l-10.57,25.31c-3.85,9.22-7.93,12.66-16.1,12.66-.57-.02-1.03-.49-1.05-1.07h-.34Z"/></svg>