<?xml version="1.0" encoding="UTF-8"?><svg id="Layer_1" xmlns="http://www.w3.org/2000/svg" width="115" height="130" viewBox="0 0 115 130"><defs><style>.cls-1{fill:#2790c3;}.cls-2{fill:#1f264f;}.cls-3{fill:#27346a;}</style></defs><path class="cls-3" d="M97.9,9.79C91.61,2.94,80.25,0,65.72,0H23.54c-2.97,0-5.49,2.07-5.96,4.87L.05,111.27c-.35,2.1,1.35,4,3.57,4H29.64l6.54-39.7-.2,1.24c.47-2.81,2.97-4.88,5.94-4.88h12.37c24.3,0,43.33-9.45,48.89-36.77,.17-.81,.31-1.59,.43-2.36q-.7-.36,0,0c1.66-10.1-.01-16.97-5.72-23.2"/><path class="cls-3" d="M46.15,29.09c.7-.32,1.47-.49,2.28-.49h33.09c3.88,0,7.5,.24,10.81,.75,.95,.15,1.87,.31,2.76,.51,.89,.19,1.76,.4,2.6,.64,.42,.12,.83,.24,1.24,.37,1.63,.52,3.14,1.12,4.53,1.83,1.64-10.01-.01-16.82-5.67-22.99C91.55,2.91,80.3,0,65.9,0H23.53c-2.96,0-5.49,2.07-5.95,4.87L.05,111.27c-.35,2.1,1.35,4,3.57,4H29.63l13.58-82.4c.28-1.69,1.41-3.07,2.94-3.78Z"/><path class="cls-1" d="M103.2,35.14c-5.56,27.34-24.61,36.79-48.93,36.79h-12.31c-2.99,0-5.51,2.08-5.97,4.9l-8.18,49.64c-.31,1.85,1.19,3.53,3.15,3.53h21.9c2.62,0,4.85-1.83,5.26-4.3l.22-1.08,4.17-25.32,.27-1.4c.41-2.48,2.64-4.3,5.26-4.3h3.2c21.27,0,37.93-8.27,42.8-32.19,2.03-9.99,.98-18.34-4.39-24.2-1.63-1.78-3.65-3.24-6.01-4.44-.13,.77-.27,1.56-.43,2.36h0Z"/><path class="cls-2" d="M97.84,30.51c-.85-.24-1.73-.45-2.63-.64-.9-.19-1.83-.36-2.79-.51-3.35-.52-7-.76-10.93-.76H48.39c-.82,0-1.59,.18-2.28,.5-1.53,.7-2.66,2.08-2.94,3.78l-7.04,42.7-.2,1.24c.46-2.81,2.97-4.88,5.95-4.88h12.4c24.34,0,43.41-9.46,48.97-36.83,.17-.81,.3-1.59,.43-2.37-1.41-.71-2.94-1.33-4.58-1.85-.41-.13-.83-.26-1.25-.37"/></svg>