<?xml version="1.0" encoding="UTF-8"?><svg id="Layer_1" xmlns="http://www.w3.org/2000/svg" width="460.21" height="150" viewBox="0 0 460.21 150"><defs><style>.cls-1{fill:#2790c3;}.cls-2{fill:#1f264f;}.cls-3{fill:#27346a;}</style></defs><path class="cls-3" d="M279.28,11.3c-7.65-7.91-21.48-11.3-39.17-11.3h-51.36c-3.61,0-6.68,2.38-7.25,5.62l-21.35,122.77c-.42,2.42,1.64,4.61,4.35,4.61h31.68l7.96-45.81-.25,1.43c.57-3.24,3.62-5.63,7.24-5.63h15.06c29.59,0,52.76-10.9,59.52-42.42,.2-.93,.37-1.84,.53-2.73q-.85-.41,0,0c2.02-11.65-.01-19.58-6.96-26.77"/><path class="cls-3" d="M216.29,33.57c.85-.37,1.79-.57,2.78-.57h40.28c4.72,0,9.13,.28,13.16,.87,1.15,.17,2.27,.36,3.36,.58,1.09,.22,2.14,.46,3.17,.74,.51,.14,1.01,.28,1.51,.42,1.98,.6,3.82,1.3,5.52,2.12,2-11.55-.01-19.41-6.9-26.53-7.59-7.84-21.29-11.2-38.82-11.2h-51.58c-3.61,0-6.68,2.38-7.25,5.62l-21.35,122.77c-.42,2.42,1.64,4.61,4.34,4.61h31.67l16.53-95.08c.34-1.95,1.72-3.55,3.58-4.36Z"/><path class="cls-1" d="M285.73,40.55c-6.77,31.54-29.95,42.45-59.56,42.45h-14.99c-3.64,0-6.71,2.4-7.27,5.66l-9.96,57.27c-.37,2.13,1.45,4.07,3.83,4.07h26.66c3.19,0,5.91-2.11,6.41-4.96l.26-1.25,5.08-29.21,.33-1.61c.5-2.86,3.21-4.96,6.41-4.96h3.9c25.9,0,46.18-9.54,52.1-37.14,2.47-11.53,1.19-21.16-5.35-27.92-1.98-2.05-4.45-3.74-7.32-5.12-.16,.89-.32,1.8-.53,2.73h0Z"/><path class="cls-2" d="M279.22,35.21c-1.03-.27-2.1-.52-3.2-.74-1.1-.22-2.23-.42-3.4-.59-4.07-.6-8.52-.88-13.3-.88h-40.31c-.99,0-1.94,.2-2.78,.57-1.86,.81-3.24,2.4-3.58,4.36l-8.57,49.27-.25,1.44c.56-3.24,3.62-5.63,7.24-5.63h15.09c29.64,0,52.84-10.92,59.62-42.5,.2-.93,.37-1.84,.53-2.73-1.72-.82-3.57-1.53-5.57-2.13-.5-.15-1.01-.29-1.52-.43"/></svg>