<?xml version="1.0" encoding="UTF-8"?><svg id="Layer_1" xmlns="http://www.w3.org/2000/svg" width="430" height="130" viewBox="0 0 430 130"><defs><style>.cls-1{fill:#3c58bf;}.cls-2{fill:#293688;}.cls-3{fill:#051244;}.cls-4{fill:#f7981d;}.cls-5{fill:#ed7c00;}.cls-6{fill:#ffbc00;}</style></defs><path class="cls-1" d="M157.54,126.68L179.4,3.99h34.16l-21.18,122.69h-34.84Z"/><path class="cls-2" d="M157.54,126.68L185.55,3.99h28.01l-21.18,122.69h-34.84Z"/><path class="cls-1" d="M315.84,5.45c-6.82-2.72-17.74-5.45-31.38-5.45-34.11,0-58.67,17.02-58.67,41.52,0,18.38,17.05,27.91,30.7,34.03,13.64,6.13,17.74,10.21,17.74,15.65,0,8.17-10.91,12.25-20.46,12.25-13.64,0-21.15-2.04-32.74-6.81l-4.78-2.04-4.78,27.91c8.19,3.4,23.19,6.81,38.88,6.81,36.15,0,60.03-17.02,60.03-42.88,0-14.29-8.87-25.18-29.33-34.03-12.28-6.13-19.78-9.53-19.78-15.65,0-5.45,6.14-10.89,19.78-10.89,11.6,0,19.78,2.04,25.92,4.76l3.41,1.36,5.46-26.54Z"/><path class="cls-2" d="M315.84,5.45c-6.82-2.72-17.74-5.45-31.38-5.45-34.11,0-52.53,17.02-52.53,41.52,0,18.38,10.91,27.91,24.56,34.03,13.64,6.13,17.74,10.21,17.74,15.65,0,8.17-10.91,12.25-20.46,12.25-13.64,0-21.15-2.04-32.74-6.81l-4.78-2.04-4.78,27.91c8.19,3.4,23.19,6.81,38.88,6.81,36.15,0,60.03-17.02,60.03-42.88,0-14.29-8.87-25.18-29.33-34.03-12.28-6.13-19.78-9.53-19.78-15.65,0-5.45,6.14-10.89,19.78-10.89,11.6,0,19.78,2.04,25.92,4.76l3.41,1.36,5.46-26.54Z"/><path class="cls-1" d="M374.52,3.99c-8.2,0-14.35,.68-17.76,8.86l-51.24,113.83h36.68l6.88-20.61h44.06l4.13,20.61h32.59L401.16,3.99h-26.64Zm-16.1,81.74c2.05-6.13,13.64-36.07,13.64-36.07,0,0,2.73-7.49,4.78-12.25l2.05,11.57s6.82,30.63,8.19,37.43h-28.65v-.68Z"/><path class="cls-2" d="M382.71,3.99c-8.2,0-14.35,.68-17.76,8.86l-59.44,113.83h36.68l6.88-20.61h44.06l4.13,20.61h32.59L401.16,3.99h-18.45Zm-24.29,81.74c2.73-6.81,13.64-36.07,13.64-36.07,0,0,2.73-7.49,4.78-12.25l2.05,11.57s6.82,30.63,8.19,37.43h-28.65v-.68Z"/><path class="cls-1" d="M94.8,90.13l-3.42-17.72c-6.15-20.45-25.96-42.94-47.82-53.85l30.74,109.06h36.89L166.54,4.92h-36.89l-34.84,85.2Z"/><path class="cls-2" d="M94.8,90.13l-3.42-17.72c-6.15-20.45-25.96-42.94-47.82-53.85l30.74,109.06h36.89L166.54,4.92h-30.06l-41.67,85.2Z"/><path class="cls-6" d="M0,3.99l6.14,1.36C49.8,15.56,79.81,41.42,91.41,72.05l-12.28-57.85c-2.05-8.17-8.19-10.21-15.69-10.21H0Z"/><path class="cls-4" d="M0,4.08C43.66,14.29,79.81,40.84,91.41,71.47l-11.6-48.32c-2.05-8.17-8.87-12.93-16.37-12.93L0,4.08Z"/><path class="cls-5" d="M0,4.08C43.66,14.29,79.81,40.84,91.41,71.47l-8.19-26.54c-2.05-8.17-4.78-16.34-14.33-19.74L0,4.08Z"/><path class="cls-3" d="M128.93,85.84l-23.19-23.14-10.91,25.86-2.73-17.02c-6.14-20.42-25.92-42.88-47.75-53.77l30.7,108.9h36.84l17.05-40.84Zm63.44,40.84l-29.33-29.95-5.46,29.95h34.79Zm78.45-42.28c2.73,2.72,4.09,4.76,3.41,7.49,0,8.17-10.91,12.25-20.46,12.25-13.64,0-21.15-2.04-32.74-6.81l-4.78-2.04-4.78,27.91c8.19,3.4,23.19,6.81,38.88,6.81,21.83,0,39.57-6.13,49.8-17.02l-29.33-28.59Zm39.73,42.28h31.65l6.88-20.61h44.06l4.13,20.61h32.73l-11.7-50.14-41.3-39.84,2.07,10.99s6.88,30.91,8.26,37.78h-28.5c2.73-6.81,13.64-36.07,13.64-36.07,0,0,2.73-7.49,4.78-12.25"/></svg>