<svg id="Layer_1" data-name="Layer 1" xmlns="http://www.w3.org/2000/svg" width="588.38" height="129.55" viewBox="0 0 588.38 129.55"><defs><style>.cls-1{fill:#231f1f;}</style></defs><path class="cls-1" d="M459,55c5.78-.09,9.82-1.93,10.83-7.34.55-3.22-1.29-5.33-5-5.51,0,0-10.74-.55-23-1.1,0,0-18.35-.74-23.49-.83-4.59-.09-9-.18-12.12-.09A4.72,4.72,0,0,0,401.22,44a57,57,0,0,0-1.29,9.27c-.18,2.66,2.76,3.94,5.69,3.76l9.37-.46,24.13-1Z"/><path class="cls-1" d="M441.69,41.07s2.48-13.68,3.77-19.28c.64-2.75-.83-5.41-4.32-6.33s-11.29-.92-13.95-.55a5.41,5.41,0,0,0-4.86,3.86c-1.29,5.69-2.57,12.57-4.13,21.47-.83,4-2.39,11.38-3.12,16.43-1.1,5-3.12,18.45-3.95,26.8-1.1,10-1.65,15.88-1,24.51,2,15.51,10.1,21.57,23.22,21.57,12.12,0,23.68-7.62,31.94-21.48,1.65-2.75,2.85-5.14,1.84-6.33-2.39-2.76-7-4.13-8.17-1.93-5.42,9.91-11.29,14-17.62,14-5.05,0-9.09-3-9.09-11.66,0-12.57,7.07-46.44,7.07-46.44A140,140,0,0,0,441.69,41.07Z"/><path class="cls-1" d="M415.08,56.58c-1.1,5.05-3.21,18.45-3.95,26.8-5.14,17.44-15.88,30.2-25.15,30.2-5.69,0-9.08-3.4-9.08-13.59,0-14.13,3.21-32,8-49.93,3.21-16.43,6.61-32.49,7.44-41.21.27-3,2.2-7.25-1.47-8-6.61-1.29-12.85-1.1-17.26.27-3.94,1.2-4.68,5.33-5.23,7.53-2.29,10.55-6,29.28-8.53,45.71-.83,5.6-2.21,12.48-3.4,19.27,0,0-3.67,18.72-3.67,29.74,0,16.7,7.16,26,23.95,26,13.86,0,25.89-9.73,33.41-21.57C417.19,96,428,56.12,428,56.12,434.26,56,409.39,56.85,415.08,56.58Z"/><path class="cls-1" d="M431.23,41s.55-13.68,1.84-19.19c.64-2.75-3.31-7.15-6-6.88a5.41,5.41,0,0,0-4.86,3.86c-1.29,5.69-4.13,21.47-4.13,21.47L415,56.67s-3.22,18.45-3.95,26.8c-5.14,17.44-15.88,30.2-25.15,30.2-5.69,0-9.08-3.4-9.08-13.59,0-14.13-24.14-7.52-24.14,3.4,0,16.7,7.16,26,23.95,26,13.86,0,25.88-9.73,33.41-21.56,11.56-21.76,18.17-50.48,18.17-50.48Z"/><path class="cls-1" d="M377.36,44c6.7-16.07.55-44.06-3.77-42.68-3.94,1.19-.82,27.53-1.28,29.73-2.3,10.56-3.77,11.38-12.48,23.5-5.79,7-12.39,11.84-19.55,13.12-20.1,2.12-23.13-7.15-15.61-20.1,11.75-20.28-3.76-13.21-11.47.1-2.29,4-2.94,8.72-3.12,13.3-.18,5.79.73,13,8.26,18.45,8.17,5.79,14.69,4.68,20.74,3.49a36.52,36.52,0,0,0,17.26-9C356.43,73.83,372.68,61.9,377.36,44Z"/><path class="cls-1" d="M384.88,50.25c6.7-16.07,10.56-34,10.56-42,0-3-.92-6.42-4.59-7.16C384.24-.23,378,0,373.59,1.33c-3.94,1.19.92,8,.46,10.18C371.76,22.07,380.11,68.14,384.88,50.25Z"/><path class="cls-1" d="M295.67,116.05c-7.07,0-11.75-6-11.75-18.08,0-23.13,8.26-47.91,22.95-47.91a11.08,11.08,0,0,1,4.4.74c4.68,1.65,7.8,17.71,6.24,28.08C314.39,99.17,305.4,116.05,295.67,116.05Zm44.61-48.37c-1.11-21.75-13.77-31.11-31.21-31.11C278.51,36.57,259,63.83,259,94.39c0,24.78,13.49,35.16,33.22,35.16,23.22,0,40.57-16.53,47-46.72A80.45,80.45,0,0,0,340.28,67.68Z"/><path class="cls-1" d="M247.65.17c-4,0-7.71.19-9.46.37-3.58.37-4.77,3.76-4.49,7.07,3.76,48.18-6.89,104.26-18.91,104.26-9,0-11.47-26.16-11.47-49.47,0-13.77.82-27.08,1.1-38.73.09-4.32-1.47-5.14-4.59-5.51a36.14,36.14,0,0,0-12.94.46c-3.58.83-4.5,3.76-8.26,12.76-18.91,45-37.18,81.13-37.18,81.13-4.86-36.25,1.38-71.4,6.61-97,.74-3.49-.91-5.6-3.85-5.6-5.51.09-13.86.28-17.62,2.75-3.58,2.3-4.87,4.78-5.88,9.92-5.87,29.37-9.63,66.17-3.76,94.72,1.28,6.14,2.66,7.61,5.32,9.17s13.77,3,18.08,3c5,0,9.46-1.28,13.13-7.71,7.89-13.58,14.32-27.16,26.25-53.32,1.19,34.05,6.06,60.76,30,60.76C241.5,129.22,262,50,262,11.83,262,1.82,256.92.17,247.65.17Z"/></svg>