<?xml version="1.0" encoding="utf-8"?>
<!-- Generator: Adobe Illustrator 23.0.3, SVG Export Plug-In . SVG Version: 6.00 Build 0)  -->
<svg version="1.0" id="Layer_1" xmlns="http://www.w3.org/2000/svg" xmlns:xlink="http://www.w3.org/1999/xlink" x="0px" y="0px"
	 viewBox="0 0 1140.5 414.5" enable-background="new 0 0 1140.5 414.5" xml:space="preserve">
<path fill="#232020" d="M559.7,414.1c-7.6-0.8-15.1-1.7-22.5-3.5c-14.6-3.6-27.9-9.7-39.3-19.6c-11.7-10.2-19.6-22.8-24.8-37.3
	c-3.8-10.5-5.9-21.4-7.1-32.5c-1.2-11.6-1.2-23.2-0.4-34.7c2.7-37.4,13.4-72.1,34.9-103.2c14.9-21.6,33.8-38.8,57.2-50.7
	c15.5-7.9,32-12.8,49.3-14.8c11.2-1.3,22.5-1.4,33.8-0.3c6.8,0.7,13.6,1.9,20.2,4c1.7,0.5,2.8,0.2,4-0.9c3.3-2.9,6.9-5.4,10.9-7.3
	c2.2-1.1,4.5-2.1,7-2.2c3.7-0.2,5.5,1.3,6.1,5c0.4,2.3-0.1,4.5-0.5,6.7c-0.6,2.7-1.4,5.2-2.4,7.8c-0.8,2.1-0.8,2.1,1,3.4
	c5.4,3.9,10.3,8.3,14.7,13.4c9.1,10.7,15,23.1,18.7,36.6c2.7,9.9,4.2,20,4.8,30.2c0,0.5,0,1,0.1,1.4c0,0.1,0.1,0.3,0.3,0.5
	c4.9-0.7,9.6-2.2,14.2-4c12.2-4.8,22.6-12.2,32.2-20.9c5.3-4.8,10.1-10,14.7-15.4c0.8-0.9,1.3-1.9,1.5-3.2
	c2.1-12.8,4.3-25.7,6.5-38.5c2.8-16.1,5.8-32.1,8.9-48.1c3.8-19.5,7.7-38.9,11.8-58.2c0.8-3.9,1.8-7.8,3.4-11.5
	c3-6.9,8-11.3,15.4-13.2c8.7-2.2,17.5-3,26.4-3c8.7,0,17.4,0.9,26,2.6c6.7,1.3,11.2,5.1,13.6,11.5c1.1,3,1.6,6.2,1.7,9.4
	c0.3,10.1-1,20.1-2.7,30.1c-6.1,36.2-16.5,71.2-30.3,105.3c-1.9,4.6-2.7,9.5-3.9,14.3c-5.1,20.2-9.6,40.6-13.4,61.1
	c-2.7,14.8-4.9,29.6-6.5,44.6c-1.5,14.4-2.5,28.8-2.4,43.3c0.1,7.5,0.7,15,2.9,22.3c0.9,2.9,2.1,5.7,3.7,8.3
	c3.8,6,9.2,9.4,16.1,10.5c8.1,1.3,15.7-0.2,23.1-3.6c7.2-3.4,13.4-8.1,19.1-13.5c10-9.6,18-20.7,24.9-32.7
	c8.2-14.2,14.4-29.2,19.2-44.8c1-3.2,1-6.5,1.3-9.7c1.6-14,3.6-27.9,5.7-41.8c1.8-11.4,3.5-22.7,5.8-34c0.4-1.9,0.3-2-1.8-1.9
	c-6.6,0.3-13.3,0.6-19.9,0.9c-3.8,0.2-7.7,0.5-11.5,0.3c-3.1-0.2-6.2-0.9-8.9-2.4c-4-2.2-6.1-5.4-5.8-10.1
	c0.6-9.7,1.7-19.3,3.9-28.7c0.1-0.4,0.2-0.8,0.3-1.2c2.3-8,7-11.7,15.3-11.8c11.9-0.1,23.8-0.1,35.8,0.3c0.4,0,0.8,0,1.2,0
	c1.3,0.2,1.9-0.3,2.1-1.6c0.6-3.7,1.3-7.4,1.9-11.1C980.6,97,984.1,78.5,988,60c1.4-6.8,6.1-10.4,12.5-12.3c2.5-0.7,5.1-0.8,7.6-0.9
	c10.9-0.3,21.8-0.3,32.6,0.9c3.3,0.4,6.7,0.8,9.9,1.9c5.6,2,9.7,5.4,11.5,11.3c0.9,3,0.7,6,0.1,9c-4.2,19.7-7.8,39.5-11.4,59.3
	c-0.3,1.6-0.3,1.7,1.4,1.8c4.1,0.2,8.1,0.4,12.2,0.6c15.2,0.7,30.4,1.4,45.5,2.1c5.2,0.2,10.4,0.5,15.6,0.9c3.1,0.2,6,0.9,8.7,2.5
	c3.2,1.9,5.4,4.4,6,8.2c0,0.3,0.2,0.4,0.5,0.4c0,2.1,0,4.2,0,6.2c-0.5,0-0.4,0.3-0.5,0.6c-1.7,9.8-7,16.6-16.3,20.2
	c-4.5,1.7-9.1,2.6-13.8,2.8c-11.4,0.4-22.9,0.7-34.3,1c-10.4,0.3-20.8,0.7-31.2,1c-1.4,0-2,0.5-2.2,1.9c-0.9,5-2,10-3,15
	c-3,15.1-5.8,30.3-8.5,45.5c-2,11.3-3.8,22.7-5.5,34.1c-1.6,10.7-3,21.4-4.1,32.1c-0.8,8-1.5,16.1-1.1,24.2
	c0.2,4.9,0.9,9.7,2.4,14.4c4,12.3,13,19,26,19.1c9.4,0.1,18-2.5,25.8-7.5c5.9-3.8,11-8.5,15.5-13.9c5.8-6.8,10.8-14.3,15-22.2
	c1.7-3.2,4.2-4.6,7.8-4.6c1.4,0,2.7,0.1,4,0.5c5.3,1.3,9.7,4,13.6,7.7c2.6,2.3,3.1,5,2.2,8.3c-0.8,3-2.1,5.7-3.5,8.4
	c-8.2,14.9-18.1,28.6-30.3,40.6c-12.2,12-26.1,21.6-42.2,27.6c-7.6,2.8-15.5,4.5-23.5,5.6c-1.3-0.1-2.6-0.1-3.8,0.4
	c-4.8,0-9.6,0-14.4,0c-0.2-0.6-0.8-0.4-1.2-0.5c-4.4-0.3-8.7-1-13-2c-19.3-4.4-33.4-15.4-42-33.3c-3.2-6.7-5.5-13.8-7.1-21.1
	c-0.9-3.9-1.5-7.8-2.1-11.6c-0.3,0-0.4,0-0.4,0c-0.5,0.6-1,1.3-1.4,1.9c-11.9,17.9-26.2,33.5-43.9,45.8
	c-15,10.4-31.3,17.5-49.5,19.9c-1.8,0.2-3.7-0.1-5.4,0.8c-4.8,0-9.6,0-14.4,0c-0.6-0.4-1.2-0.4-1.9-0.4c-5.6-0.3-11.1-1.2-16.6-2.5
	c-11.6-2.8-21.9-7.9-30.3-16.5c-8-8.2-13-18.1-16-29.1c-3.7-13.3-4.6-26.9-4.1-40.6c0.4-10.4,1.3-20.7,2.6-31.1
	c1.4-11.9,3.2-23.8,5.1-35.6c1.2-7.4,2.6-14.8,3.9-22.2c-0.2,0-0.4,0-0.5,0.1c-1.5,1.3-3.1,2.6-4.6,3.8
	c-14.2,11.6-30.1,19.9-48.1,23.8c-1.6,0.3-2,1.2-2.3,2.6c-1.2,6-2.8,12-4.4,17.9c-6,21.2-14.2,41.6-25.8,60.4
	c-9.8,15.8-21.6,29.7-36.2,41.2c-22.9,18-49.2,26.7-78.1,28.1c-4,0-8,0-12,0C563.2,414.3,561.5,413.9,559.7,414.1z M544.9,309.7
	c0,1,0,1.9,0,2.9c0.1,10,0.8,20,3.7,29.6c2.3,7.6,5.6,14.6,11.5,20.2c7.5,7.1,16.5,9.8,26.7,8.4c6.3-0.8,11.6-3.8,16.6-7.6
	c5.5-4.2,10.1-9.3,14.2-14.9c8-10.8,13.9-22.8,18.9-35.2c7.7-19.4,12.8-39.5,16.2-60c0.2-1.2-0.2-1.9-1.1-2.6
	c-13.4-10.9-20.6-25.3-22.2-42.3c-1.4-14.8-0.3-29.5,4-43.9c0.5-1.7,0.5-1.7-1.2-2.4c-6.6-2.3-13.3-2.7-20.1-1.6
	c-8.6,1.3-16,5.3-22.6,10.9c-1.8,1.5-1.8,1.5-3.8,0.4c-7.7-4.5-17.1-3.7-24,2c-11.1,9.2-11.3,26.7-0.4,36.2c1.7,1.5,1.7,1.5,0.8,3.7
	c-2.8,7.2-5.2,14.6-7.2,22.1C548.4,259.8,545.4,284.6,544.9,309.7z"/>
<path fill="#232020" d="M0,245.5c0.3,0.4,0.6,0.6,0.9,0.1c0.2-0.3,0.1-0.8,0.1-1.2c0.5-9.4,0.9-18.9,1.5-28.3
	c0.7-10.5,1.6-21,2.6-31.6c0.9-9.2,1.9-18.4,3.1-27.6c1.4-10.6,2.9-21.2,4.4-31.8c1.8-11.9,3.8-23.8,6.1-35.7
	c1.8-9.2,3.1-18.4,5.8-27.4c1.6-5.4,3.9-10.5,7.7-14.7c0.4-0.5,0.9-0.9,1.3-1.4c0.3-0.3,0.6-0.5,1-1c9.1,15,22.2,22.8,39.8,20.4
	c17.6-2.4,28.2-13.4,33-30.4c2.1,2.2,2.8,4.9,3,7.7c0.2,2.2-0.1,4.3-0.5,6.4c-2.9,14.1-5.7,28.2-8.3,42.3c-2.5,13.8-4.9,27.5-7,41.4
	c-1.9,12.3-3.6,24.7-5.1,37.1c-1,8.3-1.8,16.5-2.6,24.8c-1.2,11.8-2,23.6-2.7,35.4c-0.9,16.9-1.3,33.7-1.1,50.6
	c0.2,15.4,0.9,30.9,2.1,46.3c0.8,10.7,1.9,21.3,3.4,32.1c0.9-0.5,1.1-1.4,1.5-2.1c12.9-25.8,25.4-51.8,37.7-77.9
	c30.4-64.6,59.5-129.8,87-195.8c1.7-4.2,3.6-8.4,5.7-12.4c1-1.9,2.2-3.7,3.5-5.5c2.6-3.4,6.1-5.6,10.3-6.5c12-2.7,24.2-3.5,36.5-2
	c3.4,0.4,6.8,0.7,10.2,1.5c5.4,1.3,8.3,4.8,9.1,10.1c0.3,2.1,0.5,4.1,0.4,6.2c-0.7,18.5-1.4,37.1-2.1,55.6c-1.2,34-2.2,68-1,102
	c0.5,14.6,1.4,29.2,2.9,43.8c1.6,15.4,3.7,30.8,7.6,45.8c1.7,6.6,3.8,13,6.7,19.2c1.7,3.6,3.6,6.9,6.2,10c1.5,1.8,3.2,3.4,5.2,4.6
	c4.8,2.9,9.6,3.1,14.6,0.4c2.8-1.5,5.1-3.6,7.2-5.9c3.7-4.1,6.6-8.8,9.2-13.7c5.9-11.3,10.2-23.3,13.8-35.4
	c5.6-18.5,9.7-37.4,13.1-56.5c2.4-13.4,4.4-26.8,6-40.3c1.2-9.8,2.2-19.5,3.1-29.3c1.4-15.9,2.5-31.7,3.1-47.6
	c0.8-21,1-42.1,0.4-63.1c-0.3-8.5-0.5-16.9-1.1-25.4c-0.3-4.3-0.6-8.6-0.9-12.9c-0.3-4.2-0.3-8.5,0.9-12.6
	c2.2-7.4,7.1-11.3,14.7-11.9c12.2-1,24.4-1.3,36.7-1c5.4,0.1,10.7,0.7,15.9,2c11.7,2.8,18.6,10.2,21,22c1.1,5.4,1.3,10.8,1.2,16.2
	c-0.1,12-0.7,24-1.8,35.9c-1.6,18.2-4,36.2-7,54.2c-4.1,24.4-9.2,48.7-15.5,72.6c-8.9,34.1-19.8,67.6-34,99.9
	c-9,20.4-19.2,40-32,58.3c-8.4,12-17.8,23.3-29.1,32.7c-9.2,7.7-19.3,13.8-31,17.2c-8.4,2.4-16.8,2.7-25.4,2
	c-8.8-0.8-17.3-2.9-25.3-6.7c-12.2-5.8-21.6-14.7-29.1-25.8c-7.2-10.6-12.2-22.3-16.1-34.4c-4.2-13-7.1-26.4-9.3-39.9
	c-2.9-17.7-4.6-35.5-5.8-53.4c-0.7-10.5-1.1-20.9-1.7-31.4c0-0.6-0.1-1.2-0.5-1.8c-0.4,0.8-0.7,1.5-1.1,2.3
	c-16.3,35.5-32.5,71-49.8,106.1c-10.1,20.4-20.7,40.6-32.1,60.3c-2.8,4.8-5.9,9.3-9.8,13.3c-6.2,6.4-13.7,10.4-22.5,11.8
	c-0.8,0.1-1.6,0.3-2.3,0.5c-1.1-0.1-2.3,0-3.4,0.4c-3.4,0-6.7,0-10.1,0c-0.6-0.1-1.2-0.3-1.9-0.3c-8.9-0.5-17.7-1.6-26.4-3.1
	c-6.5-1.1-13.1-2.2-19.4-4.3c-8-2.7-13.9-7.8-17.3-15.6c-1.9-4.3-3.2-8.9-4.1-13.5c-2.8-13-4.8-26.1-6.4-39.3
	c-1.7-15-2.8-30.1-3.3-45.2c-0.5-13.1-0.8-26.2-0.2-39.3c0-0.4-0.1-0.8-0.1-1.2c0.4-1.4,0.3-2.8,0.2-4.1c0-0.7-0.4-0.7-0.9-0.2
	C0,247.4,0,246.5,0,245.5z"/>
</svg>
